<svg width="134" height="110" viewBox="0 0 134 110" fill="none" xmlns="http://www.w3.org/2000/svg">
<g id="Layer_1" clip-path="url(#clip0_1760_66)">
<g id="Group" opacity="0.86">
<path id="Vector" d="M93.4908 73.9643C93.0906 74.6821 92.449 75.6857 91.5851 76.9752C90.947 77.9507 90.4348 79.0029 90.0606 80.1068L87.0942 85.7348C87.0376 85.8465 87.0176 85.9732 87.037 86.0969C87.1641 86.7321 87.2847 87.4372 87.4118 88.1423C88.047 91.7058 87.9835 95.8474 86.1413 99.0108C85.0615 100.827 83.6005 100.592 81.86 100.154C81.7674 100.13 81.6698 100.132 81.5786 100.162C81.4874 100.191 81.4066 100.246 81.3455 100.319L80.7738 101.005C79.3255 102.797 75.5714 102.435 74.3836 100.573C74.3763 100.554 74.3633 100.537 74.3463 100.525C74.3293 100.513 74.309 100.507 74.2883 100.507C74.2675 100.507 74.2473 100.513 74.2302 100.525C74.2132 100.537 74.2002 100.554 74.193 100.573C74.0913 100.942 74.1231 101.272 74.0278 101.647C73.3926 104.092 72.84 106.462 72.389 108.755C72.3649 109.075 72.2205 109.374 71.9848 109.592C71.7491 109.81 71.4396 109.931 71.1186 109.93C70.3675 109.974 69.6146 109.974 68.8636 109.93C66.8944 109.816 66.6085 106.881 68.5841 106.697C68.886 106.665 69.1905 106.665 69.4924 106.697C69.683 106.697 69.7846 106.633 69.8037 106.436L70.2483 99.8366C70.2524 99.7811 70.2426 99.7255 70.2199 99.6747C70.1972 99.6239 70.1622 99.5795 70.1182 99.5455C70.0741 99.5116 70.0224 99.489 69.9675 99.48C69.9126 99.4709 69.8563 99.4755 69.8037 99.4935L66.437 100.643C65.2691 101.094 64.215 101.797 63.3499 102.701C63.2051 102.954 62.9932 103.162 62.7376 103.302C62.482 103.443 62.1927 103.509 61.9016 103.495C61.7892 103.491 61.6817 103.448 61.5967 103.375C60.7166 102.632 59.9257 101.79 59.24 100.866C58.2364 99.4491 59.9324 98.3565 61.1457 99.1696C61.3435 99.3508 61.5952 99.4626 61.8623 99.4878C62.1294 99.513 62.3975 99.4503 62.6258 99.3093C63.4068 98.902 64.1434 98.4145 64.8236 97.8547C65.1665 97.7906 65.4752 97.6058 65.6938 97.3338C65.7738 97.2651 65.8612 97.2055 65.9543 97.156C66.0219 97.1041 66.0759 97.0365 66.1113 96.959C66.1468 96.8814 66.1626 96.7964 66.1575 96.7113L68.5332 93.7067L69.5432 92.7095C69.6028 92.6502 69.6775 92.6084 69.7592 92.5888C70.544 92.3938 71.3691 92.438 72.1285 92.7158C72.9035 93.0207 74.0342 93.7131 74.8473 93.351C74.8731 93.3394 74.896 93.3222 74.9144 93.3006C74.9328 93.279 74.9461 93.2536 74.9534 93.2262C74.9607 93.1989 74.9618 93.1702 74.9566 93.1423C74.9515 93.1145 74.9401 93.0881 74.9235 93.0652L73.7928 91.6169C73.7767 91.2473 73.6575 90.8896 73.4487 90.5843C73.2399 90.279 72.9499 90.0381 72.6113 89.8891C72.6113 89.8446 72.6113 89.7938 72.5033 89.743C72.4699 89.5905 72.3915 89.4514 72.2783 89.3439C72.165 89.2363 72.0222 89.1651 71.8681 89.1396L68.6095 86.0397C67.7964 85.1928 67.6228 85.1144 68.0886 85.8047C67.5723 85.4611 67.119 85.0314 66.7483 84.5343C66.9304 84.5343 67.0574 84.655 67.1294 84.8963C67.1366 84.93 67.1512 84.9617 67.1721 84.9892C67.1929 85.0166 67.2196 85.0391 67.2501 85.0551C67.2501 85.0551 67.2501 85.0551 67.2818 85.0551C67.4915 85.0551 67.5169 85.0107 67.3771 84.8582C66.8143 84.2481 66.2025 83.6851 65.5477 83.1749C65.3027 83.1252 65.0801 82.9984 64.9125 82.8128C64.7613 82.6443 64.5978 82.4872 64.4234 82.3428C63.858 81.9426 63.4833 81.6694 63.3054 81.517C63.0751 81.2813 62.8628 81.0286 62.6702 80.7611C62.4805 80.3783 62.164 80.073 61.7745 79.8972C61.662 79.8897 61.5529 79.8548 61.4569 79.7956C61.4461 79.782 61.4402 79.7652 61.4402 79.7479C61.4402 79.7306 61.4461 79.7138 61.4569 79.7003C61.4569 79.6622 61.495 79.6495 61.5268 79.6622C61.5586 79.6749 61.6157 79.6939 61.5268 79.6304C61.4479 79.5822 61.3586 79.5539 61.2664 79.5478C61.1644 79.5181 61.0751 79.4556 61.0123 79.37C60.8495 79.1675 60.6542 78.9936 60.4343 78.8554C60.0836 78.6204 59.7579 78.3501 59.4624 78.0487C48.8755 68.8254 38.2886 59.5936 27.7017 50.3534C27.4158 50.0993 27.4031 49.7182 27.6509 49.2672C27.8351 49.0067 28.1082 48.9623 28.483 49.1147C37.7444 57.2412 47.0037 65.372 56.2609 73.5069C58.3317 75.3321 60.3813 77.17 62.4098 79.0206C62.6799 79.2761 62.9664 79.5137 63.2673 79.732C63.603 79.9971 63.9135 80.2927 64.1947 80.615C64.2682 80.6947 64.3597 80.7557 64.4615 80.7928C64.5474 80.8255 64.6269 80.8728 64.6966 80.9326C65.5223 81.6567 66.3672 82.3809 67.2374 83.0987C67.2817 83.1353 67.3147 83.1838 67.3327 83.2384C67.3478 83.2816 67.3722 83.3209 67.404 83.3538C67.4358 83.3867 67.4743 83.4123 67.5169 83.429L68.2855 83.7847C68.4062 83.8355 68.4253 83.7847 68.349 83.7085C68.3085 83.642 68.2453 83.5924 68.1712 83.5687C68.1249 83.5499 68.0836 83.5205 68.0505 83.4831C68.0175 83.4456 67.9936 83.401 67.9806 83.3527C67.9041 83.0543 67.7324 82.7889 67.4915 82.5968C67.4127 82.5298 67.3385 82.4576 67.2692 82.3809L50.1946 62.3335C50.1275 62.1856 50.1004 62.0228 50.116 61.8611C50.1316 61.6995 50.1894 61.5448 50.2835 61.4125C50.3133 61.3697 50.3533 61.335 50.3999 61.3117C50.4465 61.2884 50.4982 61.2772 50.5503 61.2791C50.698 61.2865 50.8427 61.3235 50.9758 61.3879C51.1089 61.4523 51.2277 61.5427 51.3253 61.6538C58.427 69.8947 62.9836 75.2136 64.9951 77.6104C65.3561 78.0781 65.8049 78.4707 66.3163 78.7665C66.4126 78.8133 66.4939 78.8859 66.5514 78.9761C66.7198 79.2792 66.971 79.5281 67.2755 79.6939C67.6192 79.8664 67.9026 80.1387 68.0886 80.4752C68.117 80.5279 68.1636 80.5685 68.2196 80.5895C68.2757 80.6106 68.3374 80.6106 68.3935 80.5896C68.4675 80.5742 68.5332 80.5319 68.5778 80.4709C68.6224 80.4099 68.6427 80.3344 68.6348 80.2593C68.6279 79.9552 68.6024 79.6519 68.5586 79.3509C68.5192 79.0595 68.4174 78.78 68.2601 78.5315C67.879 77.8963 67.5233 77.2992 67.1929 76.6258C67.043 76.3311 66.9218 76.0227 66.8309 75.7048C66.7308 75.3843 66.6011 75.0738 66.4434 74.7774C64.4869 70.9407 62.4458 67.0278 60.3199 63.0386C60.2557 62.921 60.2174 62.791 60.2075 62.6573C60.1977 62.5237 60.2165 62.3894 60.2627 62.2636L60.5867 61.8762C61.0059 61.946 61.3934 62.3399 61.7619 63.0513C64.0952 67.6122 66.4476 72.1921 68.8191 76.791C69.2891 77.693 69.8735 78.5315 70.2674 79.4907C70.4281 79.8781 70.6237 80.2502 70.8518 80.6023C71.6133 81.8145 72.27 83.0896 72.8146 84.4136C72.8448 84.7426 72.9562 85.0591 73.1385 85.3346C73.3096 85.597 73.4666 85.8685 73.6086 86.1477C73.7541 86.4592 73.9719 86.7314 74.2438 86.9417C74.1422 87.145 74.1612 87.2847 74.2946 87.361C74.3256 87.3787 74.3509 87.4048 74.3677 87.4362C74.3846 87.4677 74.3922 87.5032 74.3899 87.5388C74.3852 87.5724 74.3873 87.6065 74.396 87.6392C74.4048 87.6719 74.42 87.7026 74.4407 87.7294C75.1467 88.419 75.9597 88.9896 76.8482 89.4191C77.1595 89.4191 77.4072 88.9935 77.5787 88.1994C77.8391 86.9925 77.134 86.6686 76.8672 85.6586C76.232 83.321 76.9562 80.8119 79.7321 81.0088C80.4367 81.0568 81.1122 81.3087 81.6762 81.734C82.2401 82.1592 82.6682 82.7393 82.9081 83.4036C82.9321 83.4633 82.9733 83.5145 83.0265 83.5507C83.0796 83.5869 83.1423 83.6064 83.2067 83.6068C83.8233 83.6431 84.4292 83.7849 84.998 84.0261C85.1441 84.0896 85.2267 84.0261 85.2521 83.88L88.9871 58.6302C88.9995 58.5488 89.0292 58.471 89.0741 58.402C89.119 58.333 89.1781 58.2744 89.2476 58.23C89.331 58.1726 89.4254 58.1328 89.5248 58.1131C89.6242 58.0935 89.7266 58.0943 89.8256 58.1157C89.9022 58.1267 89.9714 58.1677 90.0178 58.2296C90.0643 58.2915 90.0842 58.3694 90.0733 58.446C90.0183 59.6318 89.8932 60.8132 89.6986 61.9842C88.9363 66.8499 88.2016 71.5865 87.4944 76.1939C87.361 77.0641 87.253 77.928 87.1641 78.7792C86.9829 80.0359 86.7284 81.281 86.4018 82.5079C86.3977 82.5161 86.3955 82.5252 86.3956 82.5344C86.3958 82.5437 86.3981 82.5527 86.4025 82.5608C86.4069 82.5689 86.4131 82.5759 86.4207 82.581C86.4283 82.5862 86.4371 82.5894 86.4463 82.5905L86.5733 82.6286C86.5854 82.6325 86.5982 82.634 86.6108 82.6329C86.6235 82.6318 86.6358 82.6282 86.647 82.6223C86.6583 82.6164 86.6682 82.6083 86.6763 82.5984C86.6844 82.5886 86.6904 82.5773 86.694 82.5651L97.2639 53.1166C97.2799 53.0508 97.3099 52.9892 97.3519 52.9361C97.3939 52.8829 97.4469 52.8395 97.5072 52.8087C97.5675 52.778 97.6338 52.7606 97.7014 52.7578C97.7691 52.755 97.8365 52.7669 97.8992 52.7926L98.0199 52.8498C98.0961 52.8949 98.154 52.9656 98.183 53.0494C98.2121 53.1331 98.2105 53.2244 98.1787 53.3071C97.8865 54.3235 97.5434 55.3017 97.2258 56.2291C95.0153 62.2255 92.809 68.2368 90.6069 74.2628C89.7748 76.5433 89.0824 78.8237 88.0978 81.0152C87.9537 81.3419 87.8431 81.6825 87.7675 82.0315C87.758 82.0647 87.756 82.0995 87.7615 82.1335C87.767 82.1675 87.7799 82.1999 87.7993 82.2284C87.8882 82.3555 87.939 82.3428 87.9708 82.1967C87.9955 82.0307 88.047 81.8698 88.1232 81.7203C88.877 80.2085 89.6329 78.8322 90.3909 77.5914C92.3537 74.3518 94.2022 71.0423 96.0316 67.6884C102.176 56.6229 108.416 45.422 114.751 34.0856C114.797 34.0145 114.85 33.9485 114.91 33.8886C115.279 33.571 115.545 33.5012 115.711 33.679C115.78 33.745 115.824 33.8331 115.836 33.9281C115.847 34.0231 115.826 34.1192 115.774 34.1999L93.5416 73.9516L93.4908 73.9643Z" fill="url(#paint0_linear_1760_66)"/>
<path id="Vector_2" d="M60.5677 10.0554C61.1758 8.68602 61.9992 7.42287 63.0069 6.31403C63.5421 5.74591 64.0287 5.13396 64.4616 4.48461C64.9063 3.78587 65.3509 3.08713 65.7955 2.37569C65.8618 2.27215 65.9339 2.17247 66.0115 2.07714C66.341 1.68777 66.5797 1.22993 66.7103 0.736841C66.7598 0.562294 66.8528 0.403168 66.9806 0.27431C67.1083 0.145453 67.2666 0.0510761 67.4407 0L75.2412 0.146096L78.6777 0.368425L88.7903 1.59438C89.5208 1.83576 90.2386 2.04539 90.9436 2.2296C93.0296 2.70792 95.0652 3.38432 97.0226 4.24958C97.0698 4.27137 97.1109 4.30416 97.1427 4.34518C97.1745 4.38621 97.196 4.43426 97.2053 4.48532C97.2147 4.53637 97.2116 4.58892 97.1964 4.63854C97.1812 4.68816 97.1543 4.7334 97.1179 4.77045C97.0696 4.81676 97.0111 4.85119 96.9472 4.87103C96.8833 4.89088 96.8156 4.89559 96.7495 4.8848C96.0641 4.82583 95.3831 4.72399 94.7105 4.57989C94.0479 4.43658 93.3777 4.33055 92.7032 4.26228C91.6614 4.14794 90.6261 4.02725 89.5907 3.89386C88.5541 3.75349 87.5109 3.66657 86.4654 3.63342C81.1092 3.52735 75.7733 4.32183 70.6803 5.98371C67.2302 7.11326 63.8584 8.46921 60.5868 10.0427L60.5677 10.0554Z" fill="url(#paint1_linear_1760_66)"/>
<path id="Vector_3" d="M88.5108 16.8459L84.8773 15.4802C84.8061 15.453 84.7422 15.4097 84.6904 15.3537C84.6387 15.2976 84.6006 15.2305 84.5791 15.1573C84.5576 15.0842 84.5532 15.007 84.5664 14.9319C84.5796 14.8568 84.6099 14.7858 84.655 14.7243C84.7877 14.5298 84.8885 14.3154 84.9535 14.0891C85.0177 13.8658 85.1117 13.6521 85.233 13.4539C85.5316 12.9648 85.8683 12.4693 86.1605 11.9739C86.2181 11.8793 86.2962 11.799 86.3891 11.7388C86.4709 11.6903 86.5408 11.624 86.5936 11.5448C86.6464 11.4657 86.6807 11.3757 86.694 11.2815C86.6984 11.2312 86.7144 11.1826 86.7409 11.1395C86.7674 11.0965 86.8035 11.0603 86.8465 11.0337C86.956 10.9647 87.0336 10.8551 87.0624 10.7288C87.1016 10.5674 87.1659 10.413 87.253 10.2715C87.5706 9.71885 87.8882 9.16621 88.1995 8.60087C88.5108 8.03553 88.7775 7.19705 89.2158 6.53643L89.5715 6.16165C89.7005 6.00684 89.7909 5.82357 89.835 5.62697C89.8792 5.43037 89.876 5.22608 89.8256 5.03097C89.8256 5.03097 89.8257 4.99286 89.8701 4.99286C90.0387 5.01439 90.2099 5.00187 90.3736 4.95604C90.5372 4.91021 90.69 4.83202 90.8229 4.72607C92.8168 4.81197 94.7933 5.13394 96.7113 5.68524C98.8558 6.33411 100.958 7.11479 103.006 8.02283C103.87 8.41666 104.626 8.74062 105.28 8.98201C105.618 9.14312 105.943 9.32999 106.252 9.54099C110.572 11.8173 114.662 14.5039 118.467 17.5637C121.09 19.6691 123.548 21.9733 125.817 24.4558C129.661 28.6811 132.323 33.8454 133.535 39.4278C133.755 40.3952 133.727 41.4027 133.452 42.3561C133.44 42.4488 133.405 42.5371 133.352 42.6138C133.298 42.6906 133.227 42.7536 133.145 42.7976C133.063 42.8416 132.971 42.8654 132.877 42.8671C132.784 42.8688 132.691 42.8482 132.607 42.8071C132.275 42.7015 131.968 42.5285 131.705 42.299C128.834 39.8343 125.921 37.4269 122.965 35.0766C114.862 28.6068 105.843 23.3769 96.2032 19.5583C94.865 19.0247 92.2966 18.1206 88.498 16.8459H88.5108Z" fill="url(#paint2_linear_1760_66)"/>
<path id="Vector_4" d="M90.8229 4.70064C90.69 4.80659 90.5372 4.88478 90.3735 4.93061C90.2098 4.97644 90.0387 4.98896 89.8701 4.96743C89.8701 4.96743 89.8256 4.96743 89.8256 5.00554C89.8759 5.20065 89.8792 5.40495 89.835 5.60155C89.7908 5.79815 89.7005 5.98141 89.5715 6.13622L89.2158 6.4983C88.7775 7.13351 88.5234 7.97835 88.1994 8.56275C87.8755 9.14714 87.5642 9.68073 87.2529 10.2334C87.1659 10.3749 87.1016 10.5292 87.0624 10.6907C87.0336 10.8169 86.9559 10.9266 86.8464 10.9956C86.8035 11.0222 86.7673 11.0584 86.7408 11.1014C86.7144 11.1444 86.6983 11.193 86.694 11.2433C86.6807 11.3376 86.6463 11.4276 86.5935 11.5067C86.5408 11.5859 86.4709 11.6522 86.3891 11.7007C86.2962 11.7609 86.218 11.8412 86.1604 11.9357C85.8428 12.4312 85.5252 12.9267 85.233 13.4158C85.1116 13.614 85.0176 13.8276 84.9535 14.051C84.8884 14.2773 84.7877 14.4917 84.6549 14.6862C84.6098 14.7477 84.5795 14.8187 84.5664 14.8938C84.5532 14.9689 84.5575 15.046 84.579 15.1192C84.6005 15.1923 84.6387 15.2595 84.6904 15.3155C84.7421 15.3715 84.806 15.4149 84.8773 15.4421L88.5107 16.8078C83.9943 15.2325 80.6023 13.9811 76.7465 13.1553C73.038 12.2963 69.2814 11.66 65.4969 11.2497C64.423 11.0948 63.3617 10.8634 62.3208 10.5573C71.0704 5.9304 80.9564 3.89018 90.8229 4.67524V4.70064Z" fill="url(#paint3_linear_1760_66)"/>
<path id="Vector_5" d="M67.4407 2.33613e-05C67.2666 0.0510995 67.1083 0.145476 66.9806 0.274334C66.8528 0.403191 66.7598 0.562317 66.7103 0.736864C66.5797 1.22995 66.341 1.68779 66.0115 2.07717C65.9339 2.1725 65.8618 2.27218 65.7955 2.37572C65.3509 3.08716 64.9063 3.7859 64.4616 4.48463C64.0287 5.13399 63.5421 5.74593 63.0069 6.31405C61.9992 7.42289 61.1758 8.68604 60.5677 10.0555L59.7293 10.5573L57.1376 11.9738C50.4863 15.6063 44.4163 20.214 39.1292 25.6436C37.1049 27.6437 35.3051 29.8589 33.7617 32.2498C31.6655 35.68 29.5608 39.1059 27.4477 42.5276L27.8987 41.2064C28.0829 40.6664 27.8987 40.4695 27.3524 40.6029C26.6219 40.7808 25.9041 40.9777 25.1927 41.2C24.5011 41.4059 23.7966 41.565 23.0838 41.6764C22.0801 41.8352 21.0955 42.0448 20.1173 42.3116C19.8632 42.3751 19.6345 42.3116 19.4503 42.3497L18.2244 42.7436C17.7797 42.8833 17.3668 42.877 16.9539 43.0294C16.6239 43.1424 16.2797 43.2087 15.9312 43.2263C15.4642 43.2478 15.0071 43.3691 14.5909 43.5821C14.4937 43.6271 14.3866 43.6467 14.2797 43.6392C13.4749 43.5807 12.6669 43.6955 11.9103 43.9759C11.8922 43.9836 11.8728 43.9875 11.8532 43.9875C11.8335 43.9875 11.8141 43.9836 11.796 43.9759H11.7198C11.6397 43.9473 11.5521 43.9473 11.472 43.9759C10.74 44.0971 10.0022 44.1798 9.26149 44.2236C7.34468 44.5793 5.40401 44.7916 3.45563 44.8588C2.82042 44.8588 2.1471 44.8588 1.48648 44.8271C1.24942 44.8198 1.01291 44.8542 0.787742 44.9287C0.739518 44.9502 0.685333 44.9544 0.634386 44.9405C0.583439 44.9266 0.538868 44.8955 0.508247 44.8525C0.470541 44.8033 0.438577 44.7501 0.412968 44.6937C0.400255 44.6642 0.380307 44.6385 0.354987 44.6188C0.329667 44.5991 0.299794 44.5861 0.268122 44.581C0.23645 44.576 0.203993 44.579 0.173794 44.5898C0.143594 44.6006 0.116628 44.6189 0.0953614 44.6429C0.0624776 44.6896 0.0367673 44.741 0.0191194 44.7953C-0.0698105 39.0784 2.77595 33.1582 6.15529 28.6228C6.37761 28.5148 6.54912 28.5338 6.65075 28.6672C6.68199 28.7089 6.72216 28.7431 6.76833 28.7673C6.81449 28.7915 6.86548 28.805 6.91755 28.807C7.07699 28.8254 7.23308 28.866 7.38127 28.9277C7.42351 28.9494 7.47033 28.9607 7.51783 28.9607C7.56534 28.9607 7.61216 28.9494 7.6544 28.9277C7.77026 28.8514 7.90173 28.8022 8.03914 28.7835C8.17656 28.7648 8.31642 28.7772 8.44842 28.8197C8.56383 28.8418 8.68238 28.8418 8.79778 28.8197C9.45354 28.6809 10.1177 28.5854 10.786 28.5338C11.4303 28.4807 12.0682 28.368 12.6916 28.1972L16.8713 27.0411C16.9222 27.0411 16.9349 27.0411 16.9285 27.0919C16.9192 27.123 16.9192 27.1561 16.9285 27.1872C16.9285 27.2634 16.9793 27.2952 17.0556 27.2825C17.6172 27.1839 18.1712 27.0459 18.7135 26.8696C18.8359 26.8258 18.9549 26.7727 19.0692 26.7108C19.1916 26.6446 19.3343 26.6265 19.4694 26.66C19.5347 26.6696 19.601 26.6696 19.6663 26.66C19.7489 26.66 19.787 26.66 19.787 26.571C19.7852 26.5316 19.7988 26.4931 19.8248 26.4634C19.8509 26.4338 19.8874 26.4155 19.9267 26.4122C20.2546 26.3752 20.572 26.2738 20.8605 26.1137C21.4705 25.8326 22.1095 25.6195 22.7662 25.4785C23.0558 25.4153 23.3273 25.2871 23.5602 25.1037C23.6033 25.0745 23.6542 25.0588 23.7063 25.0588C23.7583 25.0588 23.8092 25.0745 23.8524 25.1037C23.8888 25.1267 23.9297 25.1417 23.9725 25.1478C24.0152 25.1538 24.0587 25.1508 24.1001 25.1388C24.1415 25.1267 24.1799 25.1061 24.2128 25.0781C24.2456 25.0502 24.2722 25.0156 24.2907 24.9766C24.3383 24.9072 24.4043 24.8522 24.4812 24.8178C25.0402 24.5764 25.6055 24.3668 26.1836 24.1826C27.5003 23.7379 28.7756 23.1789 29.9949 22.512C30.1373 22.4367 30.2836 22.3688 30.4332 22.3087C32.8737 21.2735 35.2165 20.0213 37.4332 18.5673L37.9541 18.237C39.8257 17.0838 41.6208 15.8107 43.328 14.4257C43.3788 14.3813 43.3979 14.394 43.3788 14.4575C43.3725 14.4744 43.3729 14.493 43.38 14.5096C43.3871 14.5262 43.4003 14.5394 43.4169 14.5464C43.4344 14.562 43.457 14.5707 43.4805 14.5707C43.5039 14.5707 43.5265 14.562 43.544 14.5464C44.8144 13.4835 46.1399 12.3295 47.5204 11.0845C47.9565 10.6891 48.4192 10.3241 48.9052 9.99194C49.4141 9.64148 49.8643 9.2127 50.2392 8.72151C50.5377 8.34673 50.976 8.08629 51.1983 7.68611C51.4207 7.28592 51.8653 7.01279 52.1765 6.65071C53.1611 5.52003 54.1648 4.34489 55.1811 3.13798C55.4945 2.76532 55.793 2.39054 56.0768 2.01365C56.1073 1.97337 56.1269 1.92586 56.1335 1.87575C56.1402 1.82565 56.1338 1.77468 56.1149 1.72781C56.0961 1.68024 56.0921 1.62811 56.1034 1.57824C56.1148 1.52837 56.1409 1.4831 56.1784 1.44831C56.2021 1.4235 56.2153 1.39051 56.2153 1.3562C56.2153 1.3219 56.2021 1.28891 56.1784 1.26409C56.0562 1.11296 55.9891 0.924829 55.9878 0.730516L61.565 0.190589L67.4344 -0.0253906L67.4407 2.33613e-05Z" fill="url(#paint4_linear_1760_66)"/>
<path id="Vector_6" d="M55.9942 0.781372C55.9954 0.975686 56.0626 1.16382 56.1847 1.31495C56.2084 1.33976 56.2216 1.37275 56.2216 1.40706C56.2216 1.44136 56.2084 1.47435 56.1847 1.49917C56.1473 1.53395 56.1211 1.57923 56.1098 1.6291C56.0985 1.67896 56.1025 1.73109 56.1212 1.77866C56.1401 1.82554 56.1466 1.87651 56.1399 1.92661C56.1332 1.97671 56.1137 2.02423 56.0831 2.06451C55.7952 2.4414 55.4966 2.81617 55.1874 3.18883C54.1711 4.39574 53.1675 5.57089 52.1829 6.70157C51.8716 7.06364 51.427 7.33678 51.2046 7.73696C50.9823 8.13715 50.5694 8.37218 50.2455 8.77236C49.8706 9.26356 49.4204 9.69233 48.9115 10.0428C48.4255 10.3749 47.9628 10.74 47.5268 11.1354C46.142 12.3804 44.8165 13.5344 43.5503 14.5973C43.5328 14.6129 43.5103 14.6215 43.4868 14.6215C43.4634 14.6215 43.4408 14.6129 43.4233 14.5973C43.4067 14.5902 43.3934 14.577 43.3863 14.5605C43.3792 14.5439 43.3788 14.5252 43.3852 14.5083C43.3852 14.4448 43.3852 14.4321 43.3343 14.4766C41.6271 15.8616 39.8321 17.1347 37.9604 18.2879L37.4396 18.6182C35.2134 20.0425 32.8644 21.2649 30.4205 22.2707C30.2709 22.3307 30.1246 22.3986 29.9822 22.4739C28.7629 23.1408 27.4876 23.6998 26.1709 24.1445C25.5928 24.3351 25.0275 24.5447 24.4685 24.7798C24.3916 24.8141 24.3256 24.8691 24.2779 24.9386C24.2594 24.9775 24.2329 25.0121 24.2 25.0401C24.1672 25.068 24.1288 25.0887 24.0874 25.1007C24.0459 25.1127 24.0024 25.1158 23.9597 25.1097C23.917 25.1037 23.8761 25.0886 23.8396 25.0656C23.7965 25.0364 23.7456 25.0208 23.6935 25.0208C23.6415 25.0208 23.5906 25.0364 23.5474 25.0656C23.3146 25.2491 23.0431 25.3772 22.7534 25.4404C22.0968 25.5815 21.4577 25.7945 20.8478 26.0756C20.5592 26.2357 20.2419 26.3371 19.914 26.3741C19.8747 26.3774 19.8382 26.3957 19.8121 26.4254C19.7861 26.455 19.7725 26.4935 19.7743 26.5329C19.7743 26.5901 19.7361 26.6219 19.6536 26.6219C19.5883 26.6315 19.5219 26.6315 19.4567 26.6219C19.3216 26.5884 19.1789 26.6065 19.0565 26.6727C18.9421 26.7346 18.8232 26.7877 18.7008 26.8315C18.1585 27.0078 17.6045 27.1458 17.0429 27.2444C16.9666 27.2444 16.9285 27.2444 16.9158 27.1491C16.9064 27.118 16.9064 27.0849 16.9158 27.0538C16.9158 27.0094 16.9158 26.9903 16.8586 27.003L12.6789 28.0956C12.0555 28.2664 11.4175 28.3791 10.7733 28.4322C10.105 28.4838 9.44083 28.5793 8.78507 28.7181C8.66967 28.7402 8.5511 28.7402 8.43569 28.7181C8.30369 28.6756 8.16385 28.6632 8.02643 28.6819C7.88902 28.7006 7.75753 28.7498 7.64167 28.8261C7.59943 28.8478 7.55261 28.8591 7.50511 28.8591C7.4576 28.8591 7.41078 28.8478 7.36854 28.8261C7.22035 28.7644 7.06428 28.7238 6.90484 28.7054C6.85277 28.7035 6.80178 28.6899 6.75562 28.6657C6.70945 28.6415 6.66928 28.6073 6.63804 28.5656C6.53641 28.4322 6.3649 28.4132 6.14258 28.5212C8.73417 25.0523 11.6759 21.8595 14.9212 18.993C22.4808 12.3322 31.3002 7.25612 40.857 4.06543C45.7928 2.5142 50.8594 1.41499 55.9942 0.781372Z" fill="url(#paint5_linear_1760_66)"/>
<path id="Vector_7" d="M27.4476 42.5275C24.9957 46.8279 22.0038 50.69 18.021 53.6438C15.2909 55.6538 11.9711 56.7016 8.58176 56.6229C7.65714 56.6085 6.74606 56.3983 5.9085 56.0064C5.07094 55.6144 4.3259 55.0495 3.72238 54.3489C2.65883 53.2379 1.77962 51.9641 1.11799 50.5757C0.376968 48.7121 -0.002453 46.7245 1.19334e-05 44.719C0.0176598 44.6647 0.0433702 44.6133 0.0762539 44.5666C0.0975209 44.5426 0.124487 44.5243 0.154686 44.5135C0.184886 44.5027 0.217343 44.4997 0.249015 44.5048C0.280687 44.5098 0.31056 44.5228 0.33588 44.5425C0.3612 44.5622 0.381147 44.588 0.393861 44.6174C0.41947 44.6738 0.451434 44.7271 0.489139 44.7762C0.519761 44.8192 0.564331 44.8503 0.615279 44.8642C0.666226 44.8781 0.720411 44.874 0.768635 44.8524C0.993804 44.7779 1.23029 44.7435 1.46735 44.7508C2.10257 44.7889 2.78225 44.7953 3.43652 44.7826C5.3849 44.7154 7.32557 44.503 9.24239 44.1473C9.98306 44.1035 10.7209 44.0208 11.4529 43.8996C11.533 43.871 11.6206 43.871 11.7007 43.8996H11.7769C11.795 43.9073 11.8144 43.9113 11.8341 43.9113C11.8537 43.9113 11.8731 43.9073 11.8912 43.8996C12.6478 43.6192 13.4558 43.5044 14.2606 43.5629C14.3675 43.5705 14.4746 43.5508 14.5718 43.5058C14.988 43.2928 15.4451 43.1715 15.9121 43.1501C16.2605 43.1324 16.6048 43.0661 16.9348 42.9531C17.3668 42.8007 17.7797 42.807 18.2052 42.6673L19.4312 42.2735C19.6154 42.2163 19.8441 42.2735 20.0982 42.2353C21.0764 42.0003 22.061 41.7907 23.0646 41.6001C23.7775 41.4887 24.482 41.3296 25.1735 41.1237C25.885 40.9014 26.6028 40.7045 27.3333 40.5266C27.8796 40.3932 28.0638 40.5901 27.8796 41.1301L27.4286 42.4513L27.4476 42.5275Z" fill="url(#paint6_linear_1760_66)"/>
<path id="Vector_8" d="M27.9431 40.73C27.1872 46.7581 16.973 54.8 10.5891 53.9932C4.20515 53.1865 -0.635184 48.397 0.12072 42.3688C0.876625 36.3406 6.93657 31.3542 13.3268 32.1673C19.7171 32.9804 28.699 34.7018 27.9431 40.73Z" fill="url(#paint7_linear_1760_66)"/>
<path id="Vector_9" d="M56.2609 1.06721C55.9115 -1.27673 30.6999 21.1971 21.7179 22.5502C12.736 23.9032 5.74868 26.8887 6.0917 29.2262C6.43471 31.5638 14.0001 32.4023 22.9757 31.0303C31.9512 29.6582 56.6039 3.41115 56.2609 1.06721Z" fill="url(#paint8_linear_1760_66)"/>
<path id="Vector_10" d="M65.9098 3.81135C65.6621 5.76781 60.1167 10.6081 59.7292 10.5573C59.3417 10.5065 62.9624 5.47561 63.2101 3.51915C63.4579 1.56269 67.0532 -0.0507472 67.4407 6.98657e-05C67.8281 0.050887 66.1512 1.85489 65.9098 3.81135Z" fill="url(#paint9_linear_1760_66)"/>
<path id="Vector_11" d="M85.6396 8.94386C85.2648 11.9167 83.6768 15.3468 84.5025 15.4484C85.3283 15.5501 91.8964 13.0982 91.1405 10.2079C90.3846 7.31771 86.8465 4.81497 91.6487 4.73239C92.4808 4.71333 86.0397 5.97106 85.6396 8.94386Z" fill="url(#paint10_linear_1760_66)"/>
</g>
</g>
<defs>
<linearGradient id="paint0_linear_1760_66" x1="66.996" y1="108.895" x2="75.0124" y2="-7.27957" gradientUnits="userSpaceOnUse">
<stop stop-color="#FF2525"/>
<stop offset="1" stop-color="#FFE53B"/>
</linearGradient>
<linearGradient id="paint1_linear_1760_66" x1="71.8491" y1="109.231" x2="79.8656" y2="-6.94289" gradientUnits="userSpaceOnUse">
<stop stop-color="#FF2525"/>
<stop offset="1" stop-color="#FFE53B"/>
</linearGradient>
<linearGradient id="paint2_linear_1760_66" x1="103.362" y1="111.404" x2="111.378" y2="-4.77037" gradientUnits="userSpaceOnUse">
<stop stop-color="#FF2525"/>
<stop offset="1" stop-color="#FFE53B"/>
</linearGradient>
<linearGradient id="paint3_linear_1760_66" x1="69.5813" y1="109.073" x2="77.5913" y2="-7.10162" gradientUnits="userSpaceOnUse">
<stop stop-color="#FF2525"/>
<stop offset="1" stop-color="#FFE53B"/>
</linearGradient>
<linearGradient id="paint4_linear_1760_66" x1="27.905" y1="106.201" x2="35.9214" y2="-9.97284" gradientUnits="userSpaceOnUse">
<stop stop-color="#FF2525"/>
<stop offset="1" stop-color="#FFE53B"/>
</linearGradient>
<linearGradient id="paint5_linear_1760_66" x1="24.9004" y1="105.992" x2="32.9105" y2="-10.1824" gradientUnits="userSpaceOnUse">
<stop stop-color="#FF2525"/>
<stop offset="1" stop-color="#FFE53B"/>
</linearGradient>
<linearGradient id="paint6_linear_1760_66" x1="9.69973" y1="104.944" x2="17.7098" y2="-11.2306" gradientUnits="userSpaceOnUse">
<stop stop-color="#FF2525"/>
<stop offset="1" stop-color="#FFE53B"/>
</linearGradient>
<linearGradient id="paint7_linear_1760_66" x1="9.65528" y1="104.944" x2="17.6717" y2="-11.2305" gradientUnits="userSpaceOnUse">
<stop stop-color="#FF2525"/>
<stop offset="1" stop-color="#FFE53B"/>
</linearGradient>
<linearGradient id="paint8_linear_1760_66" x1="24.9004" y1="105.992" x2="32.9168" y2="-10.1824" gradientUnits="userSpaceOnUse">
<stop stop-color="#FF2525"/>
<stop offset="1" stop-color="#FFE53B"/>
</linearGradient>
<linearGradient id="paint9_linear_1760_66" x1="56.5023" y1="108.171" x2="64.5187" y2="-8.00362" gradientUnits="userSpaceOnUse">
<stop stop-color="#FF2525"/>
<stop offset="1" stop-color="#FFE53B"/>
</linearGradient>
<linearGradient id="paint10_linear_1760_66" x1="81.0978" y1="109.867" x2="89.1078" y2="-6.30762" gradientUnits="userSpaceOnUse">
<stop stop-color="#FF2525"/>
<stop offset="1" stop-color="#FFE53B"/>
</linearGradient>
<clipPath id="clip0_1760_66">
<rect width="133.681" height="110" fill="white"/>
</clipPath>
</defs>
</svg>
