<svg width="57" height="115" viewBox="0 0 57 115" fill="none" xmlns="http://www.w3.org/2000/svg">
<g id="Layer_1" clip-path="url(#clip0_1760_79)">
<path id="Vector" d="M23.824 82.804C13.1465 80.7491 5.45043 75.8437 1.94031 65.9074C-1.83143 55.2463 -0.196306 45.4517 7.64151 37.0198C11.108 33.2917 14.6508 29.6326 18.27 26.0425C24.0693 20.2595 26.364 8.77534 20.4502 0.00549316C26.9145 3.45566 31.0841 8.26299 34.0764 14.1768C37.1668 20.314 37.8918 26.9636 38.257 33.7223C38.5317 37.1472 39.1154 40.5403 40.0011 43.8602C40.2409 44.8522 41.5218 46.2148 42.3993 46.2693C43.2769 46.3238 44.5795 45.1792 45.2063 44.2472C47.452 40.8243 47.4138 37.0035 46.6235 33.1445C46.4 32.0544 46.0784 30.9643 45.7241 29.5744C56.5815 41.1622 60.326 57.4047 52.6953 70.8892C48.88 77.5878 43.1352 81.4468 35.0466 82.7713C38.3878 79.9643 40.29 76.9556 39.6468 72.7587C39.0473 68.8017 37.2323 65.6731 33.8584 63.5855C31.4575 62.189 28.987 60.9156 26.4566 59.7702C20.9135 57.1103 18.4607 52.4011 18.1773 46.5963C18.0302 43.6204 18.7987 40.6008 19.1475 37.6357C13.8387 44.4706 9.91982 51.9705 10.5085 61.16C11.0644 70.4204 16.5749 76.7921 23.824 82.804Z" fill="url(#paint0_linear_1760_79)"/>
<path id="Vector_2" d="M11.506 83.6215C17.5015 93.8466 20.2268 104.333 22.9902 114.858L23.0229 114.995L26.2332 114.902V87.7748C20.6185 87.071 15.2395 85.0909 10.5085 81.9863C10.8901 82.5259 11.1844 83.0764 11.506 83.6215Z" fill="url(#paint1_linear_1760_79)"/>
<path id="Vector_3" d="M44.5033 83.627C38.5078 93.8521 35.7825 104.339 33.0191 114.869L32.9864 115.005L29.7761 114.907V87.7802C35.3908 87.0764 40.7698 85.0964 45.5008 81.9918C45.1465 82.5314 44.8249 83.0819 44.5033 83.627Z" fill="url(#paint2_linear_1760_79)"/>
</g>
<defs>
<linearGradient id="paint0_linear_1760_79" x1="31.8526" y1="113.131" x2="25.8353" y2="14.3076" gradientUnits="userSpaceOnUse">
<stop stop-color="#FF2525"/>
<stop offset="1" stop-color="#FFE53B"/>
</linearGradient>
<linearGradient id="paint1_linear_1760_79" x1="20.1341" y1="113.844" x2="14.1168" y2="15.0215" gradientUnits="userSpaceOnUse">
<stop stop-color="#FF2525"/>
<stop offset="1" stop-color="#FFE53B"/>
</linearGradient>
<linearGradient id="paint2_linear_1760_79" x1="38.5078" y1="112.727" x2="32.4959" y2="13.8988" gradientUnits="userSpaceOnUse">
<stop stop-color="#FF2525"/>
<stop offset="1" stop-color="#FFE53B"/>
</linearGradient>
<clipPath id="clip0_1760_79">
<rect width="56.6743" height="115" fill="white"/>
</clipPath>
</defs>
</svg>
