<svg width="197" height="110" viewBox="0 0 197 110" fill="none" xmlns="http://www.w3.org/2000/svg">
<g id="Layer_1" clip-path="url(#clip0_1760_97)">
<path id="Vector" d="M149.608 108.86C144.961 110.301 139.999 110.379 135.31 109.085C130.961 107.973 126.745 106.392 122.736 104.371C108.473 97.3345 93.5137 92.0431 78.7936 86.1466C75.979 85.0208 73.0729 84.1131 70.5398 82.3751C69.3372 81.6525 68.4052 80.5548 67.8871 79.2509C67.5142 78.1744 67.9997 77.717 68.9989 77.6396C70.2936 77.5411 71.2927 78.2166 72.2567 78.9625C76.957 82.6284 82.2906 85.0278 87.9338 86.8292C88.5741 87.0332 89.3763 87.5328 89.8477 86.991C90.053 86.6678 90.1464 86.2861 90.1133 85.9046C90.0802 85.5231 89.9226 85.1631 89.6648 84.8801C87.9619 83.0647 89.0808 81.6363 90.1714 80.222C90.8248 79.4527 91.2727 78.5303 91.4731 77.5411C91.7616 75.8524 92.8804 74.6351 93.9851 73.3756C95.3924 71.7009 95.3502 71.5461 93.2815 71.0606C90.3634 70.4708 87.4866 69.6928 84.6689 68.7315C80.7215 67.2539 78.8639 64.5097 78.9342 60.2878C78.9342 58.5287 78.8217 57.0089 76.7249 56.1857C75.0643 55.5313 74.9517 53.6807 76.366 52.4845C77.5126 51.4053 78.4647 50.1366 79.1805 48.7341C81.9951 43.9775 86.3084 40.9237 91.2198 38.6861C91.7483 38.5274 92.2005 38.1807 92.4909 37.7114C92.7812 37.2421 92.8898 36.6828 92.796 36.1389C92.761 33.5989 92.0494 31.1141 90.7343 28.9407C87.7931 24.3389 86.815 18.9772 85.0208 13.9321C84.8589 13.4817 84.5704 12.7922 84.9715 12.4755C86.7236 11.0683 85.4289 10.1184 84.5775 9.12623C83.1702 7.45157 82.2977 5.12252 79.5394 4.90439C78.9132 4.86217 78.7654 3.85596 78.8358 3.1101C78.9202 1.99131 79.1876 0.87252 80.2431 0.401081C81.777 -0.26034 83.3391 -0.344773 84.676 0.999179C85.7957 2.03769 86.683 3.30144 87.2794 4.70735C87.9338 6.46645 90.1784 7.48673 89.6296 9.80874C89.6296 9.91429 89.9392 10.2309 90.1362 10.252C91.8531 10.4491 92.1275 11.8915 92.6482 13.1159C94.3651 17.1266 96.9264 20.6941 98.7136 24.6837C99.8042 27.1113 102.168 28.4974 104.3 29.9751C105.454 30.7772 106.538 31.5301 106.812 33.1133C107.024 34.3376 108.17 34.4643 109.233 34.4291C110.604 34.2995 111.98 34.6127 113.159 35.3227C114.039 35.8716 115.509 35.3861 116.53 35.1327C117.246 34.921 118.006 34.9033 118.732 35.0813C119.457 35.2593 120.123 35.6267 120.66 36.146C123.194 38.3026 124.816 41.3403 125.199 44.646C125.564 47.749 124.115 49.7896 121.019 50.3665C119.204 50.7043 117.402 51.3798 115.446 50.6198C114.56 50.268 113.786 50.8802 113.701 52.0271C113.574 53.6877 113.997 55.299 114.081 56.9526C114.158 58.3951 114.391 59.8727 113.131 61.0267C112.94 61.2728 112.85 61.582 112.878 61.8922C113.363 68.5064 115.925 73.9596 121.716 77.5692C122.257 77.914 122.834 78.1744 122.947 78.8639C123.411 81.8263 124.235 84.7394 123.559 87.8072C122.855 90.9877 124.678 94.8436 127.492 96.666C128.9 97.5596 128.555 98.8192 127.964 99.9943C127.76 100.388 127.197 100.599 126.465 101.141C134.219 104.666 141.453 108.037 149.608 108.86ZM106.615 88.0816C106.693 87.0262 106.672 86.034 105.504 85.5063C105.139 85.3078 104.831 85.0193 104.61 84.6683C104.388 84.3173 104.26 83.9155 104.237 83.501C104.082 82.6284 103.977 81.7559 103.843 80.8834C103.759 80.3064 103.688 79.6239 102.957 79.6379C102.225 79.652 102.253 80.4682 102.253 80.9537C102.218 82.0866 102.077 83.0647 100.803 83.4869C99.178 84.0568 99.4383 85.246 100.325 86.1255C101.732 87.5328 101.732 88.8416 100.775 90.3474C100.494 90.7906 100.395 91.1073 101.014 91.3676C102.422 91.9376 103.794 92.5779 105.194 93.1549C105.715 93.373 106.243 93.3871 106.172 92.5708C106.038 91.058 106.538 89.5944 106.615 88.0816ZM111.449 84.873C110.865 84.7886 110.387 84.9293 110.493 85.8722C110.844 88.926 111.597 91.9305 111.646 95.0195C111.646 96.0328 112.737 96.1242 113.476 96.3846C113.961 96.5605 114.06 96.1172 114.18 95.7583C115.137 93.1127 116.093 90.5233 115.045 87.6172C114.801 86.8454 114.325 86.1677 113.681 85.6766C113.038 85.1855 112.258 84.9048 111.449 84.873Z" fill="url(#paint0_linear_1760_97)"/>
<path id="Vector_2" d="M74.3466 57.1638C70.8706 53.8285 67.7605 50.1274 64.1156 46.961C61.8615 45.023 59.4725 43.2477 56.9667 41.6485C52.4071 38.6862 48.7904 34.9077 46.7639 29.7711C44.3645 31.1362 41.7188 36.3361 42.1621 38.9184C42.6054 41.5008 44.3856 42.8095 46.5247 43.7946C48.4444 44.6251 50.2226 45.7504 51.7949 47.1299C55.1302 50.1766 55.4327 53.4626 52.6182 57.016C51.6049 58.2966 50.3243 59.3732 49.2477 60.6116C46.6021 63.6513 46.9257 66.2759 50.2258 68.5768C51.0723 69.1287 51.9485 69.6338 52.8504 70.0897C53.2022 70.2867 53.554 70.5048 53.3851 70.941C53.2163 71.3773 52.7659 71.2084 52.4 71.1381C45.8121 70.0084 39.6979 66.9781 34.8091 62.42C31.4245 59.2325 27.4771 58.9018 23.3608 60.696C21.2499 61.5897 19.3571 62.8633 17.3166 63.8624C12.1448 66.3885 6.79715 67.8802 0.999156 66.3252C0.781028 66.2618 0.569948 66.1774 0 65.9874C1.99834 64.6857 3.72225 63.5739 5.4321 62.4692C18.8013 53.6104 30.6154 43.1402 39.9878 30.0525C40.2779 29.6372 40.5903 29.2379 40.9237 28.8563C44.6952 24.4727 47.4745 24.2335 51.8512 27.9487C54.1591 29.9048 56.2419 32.1705 59.359 32.9164C62.1032 33.5707 62.4128 33.4933 63.8482 31.1362C65.1007 29.0886 66.2828 26.9917 67.5494 24.9441C68.3315 23.5579 69.4289 22.3751 70.7527 21.4913C72.0765 20.6075 73.5896 20.0476 75.1698 19.8568C77.7451 19.5542 79.3917 17.7459 81.39 16.423C83.2476 15.1635 83.2687 15.0932 83.9864 17.2815C84.8519 19.9272 85.5133 22.6291 86.5195 25.2256C87.0402 26.5766 87.8564 27.7446 88.4756 29.0252C88.9963 30.1088 89.6718 31.1361 90.094 32.2409C91.3254 35.5057 90.9454 36.3079 88.0253 38.06C83.318 40.8745 78.9484 44.0831 76.6545 49.3674C76.2393 50.3314 75.212 50.7747 74.5436 51.5206C73.2911 52.9279 72.5382 54.4266 74.0018 56.1857C74.1461 56.3113 74.2528 56.4745 74.3099 56.6571C74.3671 56.8397 74.3724 57.0346 74.3254 57.2201L74.3466 57.1638Z" fill="url(#paint1_linear_1760_97)"/>
<path id="Vector_3" d="M135.978 55.2287C133.214 53.1213 130.805 50.5842 128.843 47.7138C127.942 46.502 127.332 45.098 127.063 43.6116C126.431 39.8872 124.422 36.5366 121.434 34.225C119.759 32.9022 118.732 31.0516 117.536 29.3629C114.756 25.583 112.461 21.4699 110.704 17.1196C109.944 15.1634 108.874 13.3621 106.63 12.6444C106.137 12.4896 105.757 11.9408 105.356 11.5467C104.06 10.1555 102.6 8.92684 101.007 7.88781C100.388 7.50784 99.6635 6.63532 99.0232 7.08565C98.3829 7.53598 98.6151 8.73217 98.8121 9.55543C99.2343 11.3497 100.452 12.6796 101.774 13.8828C103.792 15.7815 105.459 18.0204 106.7 20.497C106.967 21.0036 107.544 21.7565 106.848 22.1717C106.151 22.5868 105.996 21.5947 105.687 21.2147C104.243 19.2804 102.4 17.6796 100.283 16.5215C98.214 15.4801 98.0592 15.5716 97.8059 18.2032C96.641 16.6866 95.6673 15.0323 94.9069 13.2777C94.0907 11.6523 93.7107 9.75949 92.0923 8.66182C91.6912 8.3874 91.6913 8.06373 92.0079 7.71894C92.1022 7.63517 92.1915 7.54588 92.2753 7.45156C96.4971 2.21648 98.6502 2.125 103.477 6.74792C105.166 8.37332 106.728 10.1113 109.247 10.7938C111.175 11.3145 112.125 13.3621 113.033 15.1142C115.303 19.6307 118.061 23.885 121.258 27.8008C124.425 31.5934 126.226 31.9734 130.645 29.8273C132.404 28.9688 134.114 27.9767 135.929 27.259C138.547 26.2317 140.249 26.8861 141.762 29.2292C141.868 29.391 141.952 29.5599 142.051 29.7217C145.168 34.598 147.764 34.7457 151.381 30.2635C153.013 28.2441 155.096 27.6249 157.672 28.4482C159.655 29.1256 161.488 30.1819 163.068 31.5582C173.707 40.3397 184.337 49.1352 194.957 57.9448C195.443 58.3458 196.442 58.6484 195.921 59.5209C195.401 60.3934 194.683 59.5209 194.099 59.345C190.612 58.0093 187.281 56.2988 184.164 54.2436C181.771 52.6871 179.143 51.5254 176.381 50.8028C172.16 49.7684 169.028 47.2846 166.397 43.9775C164.814 42.0003 163.273 39.9878 161.57 38.1162C159.065 35.372 156.644 34.9779 153.379 36.6174C150.114 38.2569 147.223 40.8392 144.014 42.732C143.057 43.302 143.69 43.9423 143.944 44.5193C146.547 50.3314 151.022 54.4617 156.159 57.9729C157.622 58.972 159.184 59.8164 160.648 60.7874C160.979 61.0126 161.732 61.28 161.352 61.8992C161.007 62.3988 160.564 61.8499 160.184 61.7233C152.454 59.3056 145.613 54.6538 140.524 48.3541C138.209 45.5396 135.247 43.6397 131.426 43.5131C130.398 43.4779 129.836 43.5131 130.152 44.9555C130.856 48.1571 132.967 50.4228 134.796 52.9278C135.437 53.5409 135.853 54.351 135.978 55.2287Z" fill="url(#paint2_linear_1760_97)"/>
<path id="Vector_4" d="M75.0854 57.9306C76.0424 58.0502 76.9079 58.2824 76.8938 59.6193C76.1314 59.2539 75.5053 58.6549 75.1065 57.9094L75.0854 57.9306Z" fill="url(#paint3_linear_1760_97)"/>
<path id="Vector_5" d="M74.3254 57.227C74.8672 57.1778 75.0924 57.4663 75.0854 57.9799C74.9048 57.9278 74.7404 57.8308 74.6075 57.6979C74.4746 57.565 74.3775 57.4005 74.3254 57.22V57.227Z" fill="url(#paint4_linear_1760_97)"/>
</g>
<defs>
<linearGradient id="paint0_linear_1760_97" x1="108.755" y1="98.8825" x2="107.643" y2="14.5724" gradientUnits="userSpaceOnUse">
<stop stop-color="#FF2525"/>
<stop offset="1" stop-color="#FFE53B"/>
</linearGradient>
<linearGradient id="paint1_linear_1760_97" x1="46.0251" y1="99.7129" x2="44.9133" y2="15.3957" gradientUnits="userSpaceOnUse">
<stop stop-color="#FF2525"/>
<stop offset="1" stop-color="#FFE53B"/>
</linearGradient>
<linearGradient id="paint2_linear_1760_97" x1="144.774" y1="98.4111" x2="143.662" y2="14.0939" gradientUnits="userSpaceOnUse">
<stop stop-color="#FF2525"/>
<stop offset="1" stop-color="#FFE53B"/>
</linearGradient>
<linearGradient id="paint3_linear_1760_97" x1="76.5209" y1="99.3125" x2="75.4161" y2="14.9935" gradientUnits="userSpaceOnUse">
<stop stop-color="#FF2525"/>
<stop offset="1" stop-color="#FFE53B"/>
</linearGradient>
<linearGradient id="paint4_linear_1760_97" x1="75.2683" y1="99.3264" x2="74.1566" y2="15.008" gradientUnits="userSpaceOnUse">
<stop stop-color="#FF2525"/>
<stop offset="1" stop-color="#FFE53B"/>
</linearGradient>
<clipPath id="clip0_1760_97">
<rect width="196.076" height="110" fill="white"/>
</clipPath>
</defs>
</svg>
