<svg width="132" height="107" viewBox="0 0 132 107" fill="none" xmlns="http://www.w3.org/2000/svg">
<g clip-path="url(#clip0_1760_57)">
<mask id="mask0_1760_57" style="mask-type:luminance" maskUnits="userSpaceOnUse" x="0" y="0" width="132" height="107">
<path d="M88.6095 94.2927C122.674 75.4025 140.157 41.8179 127.659 19.2794C115.16 -3.2592 77.4133 -6.21684 43.3486 12.6733C9.28386 31.5635 -8.19904 65.1481 4.29943 87.6866C16.7979 110.225 54.5448 113.183 88.6095 94.2927Z" fill="white"/>
</mask>
<g mask="url(#mask0_1760_57)">
<path d="M36.0229 60.3054C35.7607 60.8095 35.3978 61.3136 35.8968 61.9941C36.1842 61.7622 36.4362 61.6463 36.5623 61.4446C38.8609 57.9159 41.1647 54.3368 43.418 50.7577C44.0128 49.8201 43.8011 49.4672 42.7375 48.9027C41.6738 48.3381 40.5598 47.6626 39.4558 47.0627C39.0807 46.9115 38.6948 46.7885 38.3014 46.6947C38.8055 48.207 38.8055 48.207 40.0355 49.442C41.0437 50.4502 41.0891 50.8535 40.4438 52.0583C38.9719 54.8258 37.4898 57.553 36.0229 60.3054Z" fill="url(#paint0_linear_1760_57)"/>
<path d="M127.653 19.2969C115.156 -3.24135 77.4093 -6.20043 43.3423 12.6881C17.7089 26.9037 1.46685 49.437 0.317505 69.3287C0.457881 69.4213 0.592545 69.5223 0.720778 69.6312C2.23307 70.9116 3.71008 72.2726 5.19213 73.6085C5.64078 74.0118 6.04406 74.4604 6.48767 74.8587C7.6471 75.8669 7.92435 75.9173 8.95775 74.8234C9.86513 73.8605 10.6667 72.807 11.5186 71.7685C15.2153 67.3157 18.912 62.8645 22.6088 58.415C24.6252 56.0154 26.6415 53.6311 28.6579 51.2416C30.9718 48.4993 33.3259 45.7873 35.5843 42.9996C36.2396 42.188 36.91 41.9461 37.8275 42.2838C38.745 42.6215 39.6775 43.0047 40.5799 43.413C42.0922 44.0935 43.5742 44.8245 45.0815 45.5151C45.3432 45.6737 45.6569 45.7224 45.9543 45.6506C46.2518 45.5789 46.5088 45.3924 46.6694 45.132C47.1735 44.3607 47.6776 43.5592 48.1817 42.7829C51.4785 37.7049 54.777 32.6454 58.0771 27.6044C58.4879 26.8504 58.9407 26.12 59.4332 25.4166C60.1843 24.4941 60.7237 24.4538 61.6008 25.2705C63.1093 26.5731 64.5165 27.9886 65.81 29.5049C69.0715 33.6587 72.9985 37.1722 76.5624 41.0336C80.1264 44.895 83.7963 48.8573 87.4207 52.759C87.9248 53.2631 88.4289 53.7672 89.2607 54.5586C90.773 53.3387 92.1492 52.3003 93.4447 51.1862C94.5084 50.2738 95.4611 49.2656 96.5147 48.3229C97.9715 46.982 98.6571 47.0173 99.9728 48.5346C100.537 49.1849 100.981 49.936 101.551 50.5863C105.503 55.1669 109.463 59.7391 113.432 64.3028C114.703 65.7597 116.023 67.1712 117.273 68.6381C118.115 69.6463 118.065 69.858 117.158 70.8007C112.018 76.2088 106.266 80.9998 100.018 85.0768C95.5519 87.935 91.02 90.7075 86.0798 92.7391C83.3829 93.843 80.812 95.2596 78.0848 96.2677C74.6822 97.5381 71.1888 98.5563 67.7256 99.6452C65.2051 100.437 62.6846 101.157 60.1641 101.924C59.4634 102.13 58.7577 102.322 58.0419 102.463C53.2932 103.431 48.5648 104.48 43.791 105.301C41.2705 105.73 38.7097 106.047 36.1539 106.309C51.8767 108.099 70.7603 104.207 88.6356 94.2967C122.667 75.4182 140.149 41.8352 127.653 19.2969Z" fill="url(#paint1_linear_1760_57)"/>
<path d="M72.1768 69.3237C71.8038 70.0345 71.3854 70.6747 71.6727 71.8039C72.1423 71.5175 72.5904 71.1974 73.0136 70.8461C74.1529 69.727 75.2115 68.5323 76.3759 67.4435C78.3117 65.6337 79.9903 63.5568 82.3243 62.1655C83.3325 61.5707 84.0634 60.5323 84.9103 59.6854C85.5959 58.9897 85.5556 58.3394 84.9103 57.5984C81.6236 53.9336 78.5133 50.1024 75.0653 46.599C71.5689 43.1309 68.3164 39.4254 65.3311 35.5088C64.9473 35.067 64.5347 34.6511 64.0961 34.2637C63.9852 34.7678 63.8188 35.0853 63.9045 35.2366C65.2807 37.6462 66.6972 40.0356 68.0835 42.4351C69.6714 45.1875 71.2291 47.955 72.8119 50.7074C74.0016 52.7691 75.2165 54.8107 76.4011 56.8725C76.9909 57.8807 77.3135 59.0552 76.8145 60.1189C75.3224 63.2342 73.7546 66.284 72.1768 69.3237Z" fill="url(#paint2_linear_1760_57)"/>
</g>
<path d="M88.6095 94.2925C122.674 75.4024 140.157 41.8178 127.659 19.2792C115.16 -3.25933 77.4133 -6.21696 43.3486 12.6732C9.28386 31.5633 -8.19904 65.1479 4.29943 87.6865C16.7979 110.225 54.5448 113.183 88.6095 94.2925Z" stroke="url(#paint3_linear_1760_57)" stroke-miterlimit="10"/>
</g>
<defs>
<linearGradient id="paint0_linear_1760_57" x1="37.0563" y1="108.427" x2="42.6215" y2="-2.84305" gradientUnits="userSpaceOnUse">
<stop stop-color="#FF2525"/>
<stop offset="1" stop-color="#FFE53B"/>
</linearGradient>
<linearGradient id="paint1_linear_1760_57" x1="63.1635" y1="109.732" x2="68.7237" y2="-1.53751" gradientUnits="userSpaceOnUse">
<stop stop-color="#FF2525"/>
<stop offset="1" stop-color="#FFE53B"/>
</linearGradient>
<linearGradient id="paint2_linear_1760_57" x1="71.4559" y1="110.151" x2="77.0212" y2="-1.119" gradientUnits="userSpaceOnUse">
<stop stop-color="#FF2525"/>
<stop offset="1" stop-color="#FFE53B"/>
</linearGradient>
<linearGradient id="paint3_linear_1760_57" x1="63.3661" y1="108.012" x2="68.5583" y2="-1.02456" gradientUnits="userSpaceOnUse">
<stop stop-color="#FF2525"/>
<stop offset="1" stop-color="#FFE53B"/>
</linearGradient>
<clipPath id="clip0_1760_57">
<rect width="131.943" height="107" fill="white"/>
</clipPath>
</defs>
</svg>
