<svg width="21" height="21" viewBox="0 0 21 21" fill="none" xmlns="http://www.w3.org/2000/svg">
<g id="facebook_square" clip-path="url(#clip0_583_39)">
<g id="ico-/-24-/-social-media-&#38;-tools-/-facebook_square">
<path id="Icon-color" d="M17.9416 4.19223V15.9285C17.9416 16.8544 17.188 17.6051 16.2583 17.6051H13.102C12.8696 17.6051 12.6812 17.4174 12.6812 17.1859V12.1561H14.6507C14.8507 12.1561 15.0231 12.016 15.0631 11.8208L15.3661 10.3118C15.3786 10.2509 15.3633 10.1875 15.3243 10.139C15.2852 10.0904 15.2266 10.0616 15.1641 10.0604H12.6812V7.33587C12.6812 7.22012 12.7754 7.12629 12.8916 7.12629H14.9958C15.2282 7.12629 15.4166 6.93863 15.4166 6.70714V5.44969C15.4166 5.21819 15.2282 5.03053 14.9958 5.03053H12.8916C11.4971 5.03053 10.3666 6.1565 10.3666 7.54544V10.0604H9.33137C9.09895 10.0604 8.91054 10.248 8.91054 10.4795V11.737C8.91054 11.9684 9.09895 12.1561 9.33137 12.1561H10.3666V17.1859C10.3666 17.4174 10.1782 17.6051 9.94579 17.6051H4.47496C3.54528 17.6051 2.79163 16.8544 2.79163 15.9285V4.19223C2.79163 3.26627 3.54528 2.51562 4.47496 2.51562H16.2583C17.188 2.51562 17.9416 3.26627 17.9416 4.19223Z" fill="#E8E8E8"/>
</g>
</g>
<defs>
<clipPath id="clip0_583_39">
<rect width="20.2" height="20.1193" fill="white" transform="translate(0.266602)"/>
</clipPath>
</defs>
</svg>
