<svg width="152" height="110" viewBox="0 0 152 110" fill="none" xmlns="http://www.w3.org/2000/svg">
<g id="Layer_1" clip-path="url(#clip0_1760_83)">
<path id="Vector" d="M38.7101 81.3503C42.8515 63.6505 46.9909 45.9546 51.1285 28.2626C51.5977 26.2447 52.1198 24.2385 52.5363 22.2088C52.7944 20.9359 53.3986 20.3962 54.7009 20.7892C55.2657 20.9686 55.8446 21.1001 56.4314 21.1823C58.3554 21.4228 58.7778 22.3144 58.3202 24.2326C54.5777 39.8363 50.9017 55.4575 47.2921 71.0964C46.5295 74.3814 45.5675 77.6781 46.7055 81.1449C46.9929 82.0248 46.5119 83.1746 46.3359 84.1953C45.2155 90.6479 47.075 94.7014 53.1757 97.1416C56.5311 98.4849 60.2912 99.0188 63.9223 99.3883C67.0078 99.7051 69.3777 97.5757 70.1931 94.4843C70.7797 92.1379 71.249 89.7211 71.7945 87.3453C72.3107 85.081 73.6951 83.8902 75.7482 83.8727C77.6664 83.8727 79.2385 85.1925 79.7372 87.3571C80.2358 89.5216 80.6229 91.7038 81.1039 93.8684C81.9076 97.4877 84.3303 99.488 88.0259 99.4763C92.5545 99.4763 96.9657 98.5671 100.609 95.8335C102.756 94.2262 104.298 91.8094 106.563 89.2518C109.437 89.7973 113.179 90.5717 116.453 92.6952C118.611 94.0971 118.564 96.1385 116.013 97.2765C112.605 98.8076 109.009 100.21 105.348 100.831C84.6529 104.222 63.9458 104.31 43.3266 100.145C41.0157 99.6458 38.7768 98.8574 36.6628 97.7986C35.4896 97.212 33.8647 95.8276 33.9703 94.9946C34.1111 93.8684 35.6069 92.7656 36.7332 91.9502C37.7246 91.2345 39.0092 90.9236 40.3702 90.3429C40.0651 88.9116 39.7836 87.4451 39.4081 85.7967C32.6387 86.8467 26.0746 87.9144 20.1382 91.17C16.1317 93.3698 16.0319 96.6196 20.2672 98.5025C24.8838 100.562 29.7702 102.403 34.7212 103.26C62.2728 108.054 90.4516 107.98 117.978 103.043C122.16 102.298 126.19 100.655 130.267 99.3648C131.028 99.0781 131.743 98.6829 132.391 98.1916C135.4 96.1327 135.564 93.4988 132.356 91.7918C128.892 89.9815 125.236 88.5667 121.456 87.5741C117.116 86.4009 112.61 85.8143 108.152 85.1749C104.891 84.688 104.861 84.7877 104.961 81.0687C108.481 81.4324 112 81.7492 115.52 82.1598C124.319 83.1863 133.118 84.5531 141.548 87.5272C144.534 88.5766 147.359 90.0377 149.942 91.8681C152.593 93.7687 152.546 96.6078 149.742 98.2562C146.138 100.403 142.3 102.131 138.304 103.407C127 106.885 115.268 108.099 103.536 108.973C79.9307 110.733 56.3493 110.452 32.8558 107.331C23.6109 106.099 14.3953 104.574 5.80742 100.661C4.26257 99.9533 2.83605 99.0115 1.57803 97.869C-0.568939 95.9156 -0.492689 93.9564 1.64255 92.003C5.01552 88.8588 9.30945 87.4685 13.621 86.5124C21.2468 84.8112 28.9959 83.5793 36.698 82.1363C37.5545 81.972 38.4226 81.8723 39.2849 81.7433L38.7101 81.3503Z" fill="url(#paint0_linear_1760_83)"/>
<path id="Vector_2" d="M99.7403 74.927C83.6556 69.0257 67.7587 68.7735 51.85 74.927C50.6767 68.6738 54.0321 61.875 60.0624 58.7367C67.7411 54.7595 75.9007 54.2609 84.2305 56.0852C86.3913 56.5798 88.4891 57.3178 90.4837 58.285C97.1358 61.4292 100.491 67.6003 99.7403 74.927Z" fill="url(#paint1_linear_1760_83)"/>
<path id="Vector_3" d="M55.2053 78.0359C68.9495 73.343 82.7464 73.6012 96.5316 78.0887C82.9012 75.2789 68.8428 75.2609 55.2053 78.0359Z" fill="url(#paint2_linear_1760_83)"/>
<path id="Vector_4" d="M65.1834 15.8619C65.025 17.6217 63.5996 18.6483 61.5993 18.7597C60.739 18.8261 59.8844 18.5742 59.1976 18.0518C58.5109 17.5295 58.04 16.7731 57.8743 15.9264C57.3522 13.8968 58.2204 12.4068 60.3556 11.2805C59.6458 13.1577 58.8246 15.1169 60.9422 16.0144C62.092 16.5013 63.67 15.9499 65.1834 15.8619Z" fill="url(#paint3_linear_1760_83)"/>
<path id="Vector_5" d="M49.7441 4.52271C48.7644 6.54649 48.4359 8.10687 50.1488 9.26248C51.8617 10.4181 53.0818 9.52643 54.6539 7.85461C54.3958 10.3008 53.4045 11.4095 51.6212 11.8377C50.751 12.0669 49.8267 11.9637 49.0285 11.5483C48.2302 11.133 47.6154 10.4351 47.3038 9.59097C46.5764 7.7373 47.2745 6.04201 49.7441 4.52271Z" fill="url(#paint4_linear_1760_83)"/>
<path id="Vector_6" d="M58.8539 0.281559C59.1766 1.22599 59.2294 2.58103 59.8864 3.00925C60.5434 3.43747 61.8984 3.11487 63.6524 3.11487C62.4146 3.92438 61.5171 4.95093 60.5492 5.01546C59.7045 5.07412 58.2908 4.2294 58.021 3.46681C57.6749 2.47545 58.2087 1.16734 58.3612 0L58.8539 0.281559Z" fill="url(#paint5_linear_1760_83)"/>
</g>
<defs>
<linearGradient id="paint0_linear_1760_83" x1="78.8044" y1="129.686" x2="71.4074" y2="39.977" gradientUnits="userSpaceOnUse">
<stop stop-color="#FF2525"/>
<stop offset="1" stop-color="#FFE53B"/>
</linearGradient>
<linearGradient id="paint1_linear_1760_83" x1="80.4293" y1="129.552" x2="73.0322" y2="39.8422" gradientUnits="userSpaceOnUse">
<stop stop-color="#FF2525"/>
<stop offset="1" stop-color="#FFE53B"/>
</linearGradient>
<linearGradient id="paint2_linear_1760_83" x1="80.1184" y1="129.581" x2="72.7213" y2="39.8655" gradientUnits="userSpaceOnUse">
<stop stop-color="#FF2525"/>
<stop offset="1" stop-color="#FFE53B"/>
</linearGradient>
<linearGradient id="paint3_linear_1760_83" x1="70.9321" y1="130.338" x2="63.5351" y2="40.6225" gradientUnits="userSpaceOnUse">
<stop stop-color="#FF2525"/>
<stop offset="1" stop-color="#FFE53B"/>
</linearGradient>
<linearGradient id="paint4_linear_1760_83" x1="60.9893" y1="131.159" x2="53.5922" y2="41.4436" gradientUnits="userSpaceOnUse">
<stop stop-color="#FF2525"/>
<stop offset="1" stop-color="#FFE53B"/>
</linearGradient>
<linearGradient id="paint5_linear_1760_83" x1="71.2841" y1="130.308" x2="63.8812" y2="40.5988" gradientUnits="userSpaceOnUse">
<stop stop-color="#FF2525"/>
<stop offset="1" stop-color="#FFE53B"/>
</linearGradient>
<clipPath id="clip0_1760_83">
<rect width="151.884" height="110" fill="white"/>
</clipPath>
</defs>
</svg>
