<svg width="21" height="21" viewBox="0 0 21 21" fill="none" xmlns="http://www.w3.org/2000/svg">
<g id="instagram" clip-path="url(#clip0_583_35)">
<g id="ico-/-24-/-social-media-&#38;-tools-/-instagram">
<path id="Icon-color" d="M14 2.51562H7.26668C4.94248 2.51562 3.05835 4.39223 3.05835 6.70714V13.4136C3.05835 15.7285 4.94248 17.6051 7.26668 17.6051H14C16.3242 17.6051 18.2083 15.7285 18.2083 13.4136V6.70714C18.2083 4.39223 16.3242 2.51562 14 2.51562ZM16.7354 13.4136C16.7308 14.9163 15.5088 16.1334 14 16.138H7.26668C5.75787 16.1334 4.53589 14.9163 4.53127 13.4136V6.70714C4.53589 5.20436 5.75787 3.98726 7.26668 3.98266H14C15.5088 3.98726 16.7308 5.20436 16.7354 6.70714V13.4136ZM15.4729 6.07841C15.4729 6.54139 15.0961 6.91672 14.6313 6.91672C14.1664 6.91672 13.7896 6.54139 13.7896 6.07841C13.7896 5.61543 14.1664 5.24011 14.6313 5.24011C15.0961 5.24011 15.4729 5.61543 15.4729 6.07841ZM10.6333 6.28799C8.54157 6.28799 6.84585 7.97693 6.84585 10.0604C6.84585 12.1438 8.54157 13.8327 10.6333 13.8327C12.7251 13.8327 14.4208 12.1438 14.4208 10.0604C14.4231 9.05918 14.0248 8.09836 13.314 7.39042C12.6032 6.68248 11.6385 6.28576 10.6333 6.28799ZM10.6333 12.3657C9.35504 12.3657 8.31876 11.3336 8.31876 10.0604C8.31876 8.78715 9.35504 7.75502 10.6333 7.75502C11.9117 7.75502 12.9479 8.78715 12.9479 10.0604C12.9479 11.3336 11.9117 12.3657 10.6333 12.3657Z" fill="#E8E8E8"/>
</g>
</g>
<defs>
<clipPath id="clip0_583_35">
<rect width="20.2" height="20.1193" fill="white" transform="translate(0.533325)"/>
</clipPath>
</defs>
</svg>
