<svg width="105" height="104" viewBox="0 0 105 104" fill="none" xmlns="http://www.w3.org/2000/svg">
<g id="Layer_1" clip-path="url(#clip0_1760_93)">
<path id="Vector" d="M0 104C1.26283 98.3346 1.99757 93.2029 3.57037 88.341C8.82915 71.6869 17.9426 56.5084 30.1702 44.0385C30.5031 43.7056 30.8533 43.3956 31.1747 43.0512C32.2826 41.9032 33.3216 41.6104 34.4294 43.0971C35.0015 43.7409 35.611 44.3504 36.2548 44.9225C38.0514 46.7823 38.0974 47.7926 36.5073 49.8074C33.6373 53.4122 33.5052 54.8013 36.4557 58.2224C39.1214 61.3865 41.998 64.3667 45.0659 67.1426C48.355 70.0701 50.7773 69.9725 53.9631 67.0393C55.5302 65.5985 56.5692 65.8912 57.8607 67.1943C62.8604 72.2341 62.4069 70.9368 57.9985 75.064C42.6206 89.4833 24.8893 99.6319 3.932 103.558C2.94469 103.736 1.94591 103.782 0 104ZM21.7781 87.5775C25.9913 86.8715 29.848 84.7785 32.7361 81.6307C34.2629 79.9891 34.3089 78.0489 32.7361 76.3383C31.014 74.5072 29.292 72.7048 27.4494 71.0115C25.6068 69.3181 24.0742 69.3813 22.1685 71.2698C19.1077 74.349 17.0986 78.317 16.4283 82.6066C15.906 85.4939 17.8002 87.5431 21.7781 87.5775Z" fill="url(#paint0_linear_1760_93)"/>
<path id="Vector_2" d="M62.5217 32.3228C60.2715 33.1321 56.1616 34.3605 52.2813 36.0998C50.3009 36.9895 49.1586 36.8632 47.6317 35.3938C43.4127 31.324 43.275 31.3125 47.7408 27.4953C62.2404 15.1081 78.5884 6.21658 97.2094 1.72778C98.1967 1.49243 99.207 1.34893 100.2 1.15377C103.931 0.361625 104.666 1.09636 103.569 4.91356C102.272 9.41957 101.032 13.9715 99.3447 18.334C93.913 32.482 85.6885 45.3917 75.1615 56.2936C71.9011 59.6861 72.2914 59.0087 69.4213 56.5634C69.0185 56.1904 68.5908 55.8453 68.1413 55.5302C66.1896 54.2329 66.2987 52.9069 67.2688 50.7888C68.9887 47.0424 70.3477 43.1406 71.3271 39.1363C72.2397 35.5258 68.7383 32.317 62.5217 32.3228ZM82.1932 18.5464C78.8569 18.9025 75.76 20.4469 73.4681 22.8975C73.0932 23.2933 72.8592 23.8017 72.8023 24.344C72.7506 26.5138 77.5379 30.8648 79.6905 30.6581C80.155 30.6202 80.5982 30.4465 80.9648 30.1587C83.4216 27.9488 85.1551 25.2853 85.5569 21.9446C85.775 19.8724 84.5122 18.5694 82.1932 18.5349V18.5464Z" fill="url(#paint1_linear_1760_93)"/>
<path id="Vector_3" d="M75.8274 77.6642C75.1845 76.3726 74.6794 74.9491 73.7036 73.9732C58.9342 59.0776 44.0729 44.2795 29.2691 29.424C27.4897 27.6388 25.6987 26.3357 22.9549 26.4678C21.6577 26.5252 20.2054 25.8192 19.0229 25.1303C13.8528 22.1189 9.52526 17.8526 6.44053 12.7258C4.5061 9.57451 3.84024 6.24523 5.08012 2.6232C5.77467 0.551007 7.08917 -0.315747 9.1671 0.120504C10.3957 0.304742 11.585 0.692749 12.6858 1.26853C19.3042 5.28664 24.9181 10.292 28.0407 17.5763C28.6389 18.8386 28.8924 20.2368 28.7754 21.6288C28.6224 22.3438 28.6607 23.0864 28.8865 23.7818C29.1122 24.4772 29.5175 25.1008 30.0612 25.5895C42.0849 37.7051 54.0895 49.8397 66.0749 61.9935C69.6568 65.6156 73.2386 69.2376 76.9238 72.7448C77.6012 73.382 78.7836 73.5887 79.7939 73.7724C81.6824 74.1282 83.8981 73.8068 85.4651 74.685C92.1754 78.3475 97.6039 83.9763 101.021 90.8148C103.087 94.9937 101.354 97.4275 96.624 97.416C94.5772 97.4682 92.5413 97.1026 90.6405 96.3417C88.7397 95.5808 87.0139 94.4405 85.5685 92.9904C82.7253 90.188 80.0387 87.2312 77.5208 84.1333C76.4474 82.7672 76.2005 81.401 75.5232 79.7306C75.4027 79.4379 75.2362 77.0041 75.5232 76.8606" fill="url(#paint2_linear_1760_93)"/>
</g>
<defs>
<linearGradient id="paint0_linear_1760_93" x1="30.7385" y1="107.186" x2="30.7385" y2="-5.03401" gradientUnits="userSpaceOnUse">
<stop stop-color="#FF2525"/>
<stop offset="1" stop-color="#FFE53B"/>
</linearGradient>
<linearGradient id="paint1_linear_1760_93" x1="74.2316" y1="107.186" x2="74.2316" y2="-5.03411" gradientUnits="userSpaceOnUse">
<stop stop-color="#FF2525"/>
<stop offset="1" stop-color="#FFE53B"/>
</linearGradient>
<linearGradient id="paint2_linear_1760_93" x1="53.1424" y1="107.186" x2="53.1424" y2="-5.03415" gradientUnits="userSpaceOnUse">
<stop stop-color="#FF2525"/>
<stop offset="1" stop-color="#FFE53B"/>
</linearGradient>
<clipPath id="clip0_1760_93">
<rect width="104.034" height="104" fill="white"/>
</clipPath>
</defs>
</svg>
