<svg width="138" height="117" viewBox="0 0 138 117" fill="none" xmlns="http://www.w3.org/2000/svg">
<g clip-path="url(#clip0_1760_103)">
<path d="M48.5902 46.9953C50.4798 46.9953 52.2364 47.0704 53.9757 46.9549C54.5535 46.9202 55.6456 46.4233 55.6514 46.1286C55.6514 45.1347 55.6109 43.8172 55.0042 43.1989C53.6463 41.7832 53.5712 41.2805 55.2007 40.4427C55.4581 40.3081 55.683 40.1189 55.8597 39.8884C56.0363 39.6578 56.1605 39.3914 56.2234 39.1079C56.3043 35.2133 56.3968 31.3129 56.1657 27.4298C56.1194 26.6382 54.7326 25.9274 53.6463 24.8758L56.7377 23.9513C56.803 22.275 57.2298 20.6327 57.9887 19.1367C58.7477 17.6407 59.821 16.3264 61.135 15.2837C62.6419 14.0695 64.3463 13.1235 66.1737 12.487C67.4912 12.071 67.9766 11.5567 68.0402 10.3028C68.2135 6.83579 68.4331 3.42078 68.8087 -0.017334C68.9936 3.32255 69.2478 6.66243 69.3345 10.0081C69.375 11.47 69.7159 12.2616 71.3338 12.5159C72.6628 12.7239 73.911 13.4347 75.8178 14.157L72.9864 15.434C71.6256 15.9597 70.3046 16.5835 69.034 17.3004C67.6819 18.1729 66.8094 19.4499 67.393 21.2354C67.9766 23.0209 69.1265 24.2748 71.2009 24.2864C74.6679 24.2864 78.1349 24.2864 81.5673 24.3211C82.3844 24.4007 83.1591 24.7227 83.7919 25.2456C80.6312 25.575 81.1512 27.6841 81.1628 29.5331C81.1628 32.4743 81.1628 35.4155 81.1628 38.3567C81.1628 39.3794 81.001 40.3155 82.5438 40.5871C82.7876 40.6123 83.0171 40.7143 83.1991 40.8784C83.3812 41.0425 83.5063 41.2602 83.5565 41.5001C83.6066 41.74 83.5793 41.9897 83.4782 42.213C83.3772 42.4363 83.2078 42.6217 82.9945 42.7424C80.8392 43.7132 81.9024 45.256 81.758 46.9549H88.8827C88.8827 49.22 88.8191 51.1846 88.8827 53.1435C88.9578 54.9521 89.4258 56.7723 89.2871 58.5578C89.1947 59.829 88.7093 61.6839 87.831 62.1519C86.2477 62.984 86.0975 63.9259 86.4095 65.3069C86.8487 67.1502 85.9704 68.1961 84.3987 68.8664C74.7488 73.0325 68.0517 80.423 62.1867 88.8537C57.0208 96.2673 53.3978 104.409 50.1735 112.776C49.6919 114.216 49.1128 115.621 48.44 116.983C49.0564 104.301 49.6727 91.6196 50.2891 78.938C50.5202 74.1709 50.7456 69.398 50.9998 64.625C51.0533 64.1731 50.9721 63.7154 50.7666 63.3093C50.561 62.9033 50.2401 62.567 49.8441 62.3426C49.3223 61.9331 48.8881 61.4228 48.5674 60.8421C48.2468 60.2614 48.0463 59.6221 47.9777 58.9623C47.8911 55.4028 48.232 51.8318 48.4111 48.2665C48.4573 47.995 48.5093 47.7118 48.5902 46.9953ZM79.724 26.3204C79.4015 26.1727 79.0618 26.0659 78.7128 26.0026C72.1775 26.0026 65.6364 25.939 59.1011 26.0372C58.5926 26.0372 57.6854 27.0484 57.6622 27.6089C57.5351 31.3533 57.5351 35.0977 57.6622 38.8421C57.6622 39.4199 58.5926 40.3907 59.1011 40.4022C65.4919 40.5062 71.8885 40.4947 78.2794 40.4022C78.7648 40.4022 79.6489 39.6684 79.6604 39.2465C79.7644 34.959 79.724 30.6368 79.724 26.3204ZM80.4925 52.843C80.4925 47.7696 80.4925 47.7696 75.8698 47.7638C71.1142 47.7638 70.2417 48.5959 69.8834 53.4497C69.8834 53.5942 69.8834 53.7444 69.8834 53.8889C69.7274 57.9337 69.8834 58.1186 73.859 58.1129H75.1822C80.4694 58.1129 80.4694 58.1128 80.4694 52.843H80.4925ZM55.7843 52.843C55.8577 51.5971 55.8384 50.3474 55.7265 49.1044C55.6336 48.8044 55.4686 48.5317 55.246 48.3101C55.0234 48.0885 54.7499 47.9247 54.4495 47.8332C49.3819 47.1282 49.2027 47.3189 49.2027 52.4558V54.4436C49.2027 58.5751 48.856 58.084 52.8662 58.1013C55.7958 58.1013 55.7958 58.1013 55.8016 55.2526L55.7843 52.843ZM81.6886 47.8563C81.6886 50.9881 81.6424 53.9062 81.7348 56.8185C81.7984 57.096 81.9306 57.3531 82.1194 57.5661C82.3082 57.7791 82.5476 57.9413 82.8154 58.0377C84.2026 58.1764 85.6002 58.1764 86.9874 58.0377C87.3918 58.0031 88.0621 57.4021 88.0737 57.0496C88.1604 54.0044 88.1199 50.9535 88.1199 47.8447L81.6886 47.8563ZM72.1139 46.978C74.7719 46.978 77.0255 47.0069 79.279 46.978C80.793 46.978 80.6081 45.7125 80.4347 44.8746C80.2903 44.2275 79.6604 43.3087 79.1115 43.1932C76.0663 42.5575 73.8647 43.8403 72.1139 46.9722V46.978Z" fill="url(#paint0_linear_1760_103)"/>
<path d="M0 31.0703V12.9609L41.0263 22.449V22.8361L0 31.0703Z" fill="url(#paint1_linear_1760_103)"/>
<path d="M137.34 12.9609V31.0703L96.3135 21.5822L96.3424 21.1893L137.34 12.9609Z" fill="url(#paint2_linear_1760_103)"/>
</g>
<defs>
<linearGradient id="paint0_linear_1760_103" x1="65.9079" y1="131.4" x2="70.4613" y2="9.32047" gradientUnits="userSpaceOnUse">
<stop stop-color="#FF2525"/>
<stop offset="1" stop-color="#FFE53B"/>
</linearGradient>
<linearGradient id="paint1_linear_1760_103" x1="16.3527" y1="129.551" x2="20.9061" y2="7.4715" gradientUnits="userSpaceOnUse">
<stop stop-color="#FF2525"/>
<stop offset="1" stop-color="#FFE53B"/>
</linearGradient>
<linearGradient id="paint2_linear_1760_103" x1="112.828" y1="133.151" x2="117.381" y2="11.0714" gradientUnits="userSpaceOnUse">
<stop stop-color="#FF2525"/>
<stop offset="1" stop-color="#FFE53B"/>
</linearGradient>
<clipPath id="clip0_1760_103">
<rect width="137.334" height="117" fill="white"/>
</clipPath>
</defs>
</svg>
