<svg width="21" height="21" viewBox="0 0 21 21" fill="none" xmlns="http://www.w3.org/2000/svg">
<g id="linkedin_square" clip-path="url(#clip0_583_31)">
<g id="ico-/-24-/-social-media-&#38;-tools-/-linkedin_square">
<path id="Icon-color" d="M16.7916 2.60156H5.00828C4.0786 2.60156 3.32495 3.37877 3.32495 4.3375V16.489C3.32495 17.4478 4.0786 18.225 5.00828 18.225H16.7916C17.7213 18.225 18.4749 17.4478 18.4749 16.489V4.3375C18.4749 3.37877 17.7213 2.60156 16.7916 2.60156ZM7.95411 15.1871C7.95411 15.4268 7.7657 15.6211 7.53328 15.6211H6.27078C6.03836 15.6211 5.84995 15.4268 5.84995 15.1871V9.11132C5.84995 8.87164 6.03836 8.67734 6.27078 8.67734H7.53328C7.7657 8.67734 7.95411 8.87164 7.95411 9.11132V15.1871ZM6.90203 7.80937C6.20477 7.80937 5.63953 7.22647 5.63953 6.50742C5.63953 5.78837 6.20477 5.20547 6.90203 5.20547C7.59929 5.20547 8.16453 5.78837 8.16453 6.50742C8.16453 7.22647 7.59929 7.80937 6.90203 7.80937ZM15.9499 15.1871C15.9499 15.4268 15.7615 15.6211 15.5291 15.6211H14.2666C14.0342 15.6211 13.8458 15.4268 13.8458 15.1871V11.9322C13.8458 11.2132 13.2805 10.6303 12.5833 10.6303C11.886 10.6303 11.3208 11.2132 11.3208 11.9322V15.1871C11.3208 15.4268 11.1324 15.6211 10.8999 15.6211H9.63745C9.40503 15.6211 9.21661 15.4268 9.21661 15.1871V9.11132C9.21661 8.87164 9.40503 8.67734 9.63745 8.67734H10.8999C11.1324 8.67734 11.3208 8.87164 11.3208 9.11132V9.6321C11.8327 8.82872 12.7323 8.38158 13.6606 8.46903C14.9884 8.63786 15.9773 9.81505 15.9499 11.1944V15.1871Z" fill="#E8E8E8"/>
</g>
</g>
<defs>
<clipPath id="clip0_583_31">
<rect width="20.2" height="20.8312" fill="white" transform="translate(0.800049)"/>
</clipPath>
</defs>
</svg>
