<svg width="127" height="104" viewBox="0 0 127 104" fill="none" xmlns="http://www.w3.org/2000/svg">
<g id="Layer_1" clip-path="url(#clip0_1760_109)">
<path id="Vector" d="M84.2566 104.006C84.2566 104.006 90.86 100.06 95.0951 87.901C98.734 77.4469 97.6195 75.0173 96.8226 73.2286L92.8717 73.7858L84.485 71.5902C84.485 71.5902 88.3078 57.1574 87.9121 37.3861L71.6404 34.6667L87.7282 32.3039C87.7282 32.3039 112.192 29.1945 117.101 27.9964C121.916 26.815 127.689 25.0764 126.708 22.5353C125.415 19.1918 82.0666 8.46469 78.3385 5.90691C68.2133 -1.03646 32.9002 -5.61707 12.1815 14.3047C9.27285 17.0601 6.75487 20.2006 4.69764 23.6387C3.71687 23.4381 3.20977 23.8671 1.45442 27.5394C0.206179 30.1641 -0.178315 33.346 0.072449 36.5892C0.523823 42.3568 3.05374 48.3417 6.71489 51.8245C10.0712 55.0596 14.391 57.1119 19.019 57.6701C9.82436 49.445 9.61817 40.646 15.6309 33.3181C21.6437 25.9903 17.7318 21.4598 10.6157 23.5885C8.05229 24.352 6.60344 24.1458 5.63382 23.8783C14.1709 16.634 26.6757 7.82385 37.765 6.86538C56.8063 5.19362 65.6276 12.6107 70.7543 17.2971C70.7543 17.2971 53.0281 13.4855 37.152 21.0475C37.152 21.0475 59.3585 23.739 67.4833 32.4488C67.4833 32.4488 54.1092 36.032 50.3867 37.4084C46.6643 38.7848 42.4014 40.0386 42.301 46.2408C42.2732 48.0965 41.0918 62.8302 47.372 65.5608C52.9445 67.9904 80.3112 76.6222 86.2794 78.4946L87.4496 78.8624C87.4496 78.8624 67.5947 81.7824 50.5205 80.9298C50.3868 80.9298 50.2474 80.9298 50.1137 80.9298C32.9448 80.0159 17.5033 71.5345 14.9789 70.342C12.7109 69.2944 5.13788 60.7684 0.534978 52.1199C1.69964 58.3945 3.64444 63.8221 4.56948 67.7229C5.52238 71.7909 8.47024 77.0067 13.4465 80.9242C13.4465 80.9855 79.715 103.103 84.2566 104.006Z" fill="url(#paint0_linear_1760_109)"/>
</g>
<defs>
<linearGradient id="paint0_linear_1760_109" x1="57.5976" y1="107.305" x2="65.505" y2="0.111481" gradientUnits="userSpaceOnUse">
<stop stop-color="#FF2525"/>
<stop offset="1" stop-color="#FFE53B"/>
</linearGradient>
<clipPath id="clip0_1760_109">
<rect width="126.819" height="104" fill="white"/>
</clipPath>
</defs>
</svg>
