<svg width="20" height="20" viewBox="0 0 20 20" fill="none" xmlns="http://www.w3.org/2000/svg">
<g id="twitter" clip-path="url(#clip0_583_43)">
<g id="ico-/-24-/-social-media-&#38;-tools-/-twitter">
<path id="Icon-color" d="M17.752 5.38063C17.335 5.9377 16.831 6.42364 16.2594 6.81968C16.2594 6.9652 16.2594 7.11072 16.2594 7.26432C16.264 9.90698 15.2101 12.4409 13.3339 14.2982C11.4578 16.1554 8.91641 17.1805 6.27946 17.1436C4.75499 17.1487 3.25003 16.8001 1.88248 16.125C1.80875 16.0927 1.76119 16.0197 1.76147 15.939V15.8501C1.76147 15.734 1.85538 15.6399 1.97123 15.6399C3.46976 15.5904 4.91482 15.0701 6.10197 14.1524C4.7456 14.125 3.52521 13.3202 2.96358 12.0827C2.93521 12.0151 2.94404 11.9376 2.98688 11.8782C3.02973 11.8187 3.10039 11.7859 3.17334 11.7917C3.58557 11.8332 4.00192 11.7947 4.39965 11.6785C2.90233 11.3672 1.77726 10.1221 1.61624 8.59828C1.61052 8.52517 1.64323 8.45437 1.70255 8.41143C1.76187 8.3685 1.83923 8.35965 1.90669 8.38808C2.3085 8.56566 2.74226 8.65919 3.18141 8.66295C1.8694 7.80044 1.3027 6.15992 1.80181 4.66919C1.85333 4.52433 1.9771 4.41732 2.12765 4.38748C2.27819 4.35764 2.43331 4.40937 2.53598 4.52366C4.30646 6.41098 6.73912 7.53563 9.32104 7.66047C9.25491 7.39615 9.22238 7.12451 9.22423 6.85201C9.24838 5.42317 10.1311 4.15034 11.459 3.62939C12.787 3.10845 14.2974 3.4425 15.2832 4.47516C15.9552 4.34694 16.6048 4.12087 17.2114 3.80414C17.2558 3.77635 17.3122 3.77635 17.3566 3.80414C17.3844 3.84867 17.3844 3.90513 17.3566 3.94966C17.0628 4.62359 16.5664 5.18884 15.9367 5.56657C16.4881 5.50252 17.0299 5.37223 17.5503 5.17851C17.5941 5.14864 17.6517 5.14864 17.6955 5.17851C17.7322 5.19533 17.7596 5.2275 17.7705 5.26644C17.7814 5.30538 17.7746 5.34715 17.752 5.38063Z" fill="#E8E8E8"/>
</g>
</g>
<defs>
<clipPath id="clip0_583_43">
<rect width="19.392" height="19.4229" fill="white" transform="translate(0 0.154297)"/>
</clipPath>
</defs>
</svg>
