<svg xmlns="http://www.w3.org/2000/svg" width="117" height="92" viewBox="0 0 117 92" fill="none">
<path d="M45.9214 77.5028C36.6089 78.9894 27.7662 79.8041 18.87 78.1688C13.6013 77.1995 8.7548 75.3917 4.80028 71.6453C-0.117599 66.9832 -1.32477 59.8829 1.49394 52.6815C4.47916 45.0638 9.78357 39.2361 15.9502 34.1398C17.8829 32.5402 18.8998 30.774 19.542 28.3359C22.8365 15.7825 31.1439 7.6237 42.9659 2.95558C54.9781 -1.78984 66.5919 -0.880005 77.6289 6.11325C78.6041 6.73171 80.0194 6.94579 81.2028 6.88632C88.7551 6.52357 96.2835 6.41653 103.515 9.0509C116.562 13.8082 120.498 24.7203 113.749 36.9109C110.579 42.6435 106.119 47.2403 101.291 51.5338C100.113 52.5804 98.9 53.5794 97.4253 54.8341C99.905 56.7311 100.571 60.3467 104.668 60.2159C106.684 60.1505 108.1 63.1714 106.821 64.7413C105.102 66.8523 103.009 68.785 100.738 70.2716C99.019 71.3956 95.9683 69.5937 96.4203 67.7562C97.342 64.0217 94.6006 62.5291 92.8523 60.3526C92.5431 59.972 92.1863 59.6271 91.883 59.2941C85.5082 62.5588 79.3356 66.1031 72.8537 68.9277C66.4492 71.7226 59.7235 73.7921 52.9384 76.254C53.1584 77.7704 53.2536 79.5603 53.7293 81.2432C54.0028 82.2066 54.9484 82.9677 55.5192 83.8657C56.215 84.9658 57.4162 86.1611 57.333 87.2255C57.2438 88.284 56.0128 89.7529 54.9603 90.1216C52.9443 90.8173 50.7084 91.073 48.5557 91.1206C46.0403 91.1741 43.9827 88.1413 45.4932 86.4287C48.1454 83.4018 45.8976 80.6842 45.9214 77.5028ZM18.6857 40.8476C14.1068 45.5039 9.89061 49.9579 7.7855 55.9105C5.85878 61.3517 7.28598 66.1804 12.4774 68.4103C16.9195 70.3192 21.885 71.687 26.6899 71.9427C40.5753 72.68 53.759 68.9991 66.5384 63.9266C80.293 58.4675 93.0664 51.2959 102.819 39.8962C105.751 36.4709 107.784 32.1001 109.485 27.8661C110.817 24.5598 109.64 21.1345 106.72 18.8034C100.518 13.8498 93.1794 13.8617 85.5082 13.8261C90.325 22.2287 89.3259 26.8195 83.1295 33.5689C70.7427 47.0559 54.8532 53.3415 36.7932 53.5616C28.0041 53.6686 21.4568 51.9262 18.6857 40.8476ZM37.7744 46.5148C46.9501 46.5683 57.4281 43.4582 66.5027 38.1241C71.7655 35.0259 76.4514 31.3092 79.9481 26.2248C81.5596 23.8818 81.8272 21.6459 80.1919 19.0948C76.9688 14.058 72.6694 10.5078 66.9606 8.6941C60.6393 6.68413 54.2407 6.49384 47.9789 8.64058C35.9904 12.7438 27.677 20.296 25.7206 33.4678C24.3707 42.5424 27.2608 46.1104 36.2937 46.5207C36.7814 46.5386 37.2809 46.5148 37.7744 46.5148ZM87.316 44.8676C87.2446 42.7565 85.8769 41.6326 83.8729 41.6266C81.7261 41.6266 80.2454 42.8576 80.2632 45.0579C80.2811 47.2403 81.7261 48.3523 83.9204 48.495C86.0553 48.2334 87.3933 47.1154 87.316 44.8676ZM50.5776 56.8025C48.4665 56.9214 47.1047 58.2297 47.2237 60.4775C47.3367 62.5767 48.752 63.7244 50.7262 63.6828C52.8254 63.6352 54.1277 62.3685 54.3002 60.204C54.0088 57.968 52.7303 56.6836 50.5776 56.8025ZM95.1953 22.5201C95.231 24.7025 96.6581 25.9215 98.8525 25.8442C100.868 25.7729 102.194 24.6371 102.242 22.5438C102.296 20.2722 100.88 19.2375 98.7097 18.9996C96.6106 19.2197 95.1596 20.3257 95.1953 22.5201ZM33.1361 38.4273C35.5801 38.5106 36.6267 36.9645 36.6922 33.1229C36.7635 28.7581 39.2492 25.7491 42.3534 23.1385C43.7092 21.9968 45.3088 21.1464 46.6944 20.0344C48.193 18.8331 48.8233 16.9956 47.4794 15.6338C46.516 14.6586 44.3931 13.8498 43.2037 14.2364C36.2521 16.4902 29.6454 25.7967 29.5383 32.9445C29.4848 36.5006 30.692 38.3441 33.1361 38.4273Z" fill="url(#paint0_linear_82_58)"/>
<defs>
<linearGradient id="paint0_linear_82_58" x1="72.5504" y1="0.000145026" x2="64.7649" y2="79.097" gradientUnits="userSpaceOnUse">
<stop offset="0.0582761" stop-color="#17F892"/>
<stop offset="0.905304" stop-color="#34B1F2"/>
</linearGradient>
</defs>
</svg>
