<svg xmlns="http://www.w3.org/2000/svg" width="81" height="117" viewBox="0 0 81 117" fill="none">
<g clip-path="url(#clip0_68_155)">
<path d="M6.82678 99.691C7.7206 90.7032 8.59521 81.8082 9.49224 72.9132C10.2067 65.8196 10.9723 58.7292 11.6259 51.6292C11.69 50.9253 11.344 49.9494 10.8378 49.4662C7.66294 46.4266 7.17277 41.7263 9.79339 38.3027C12.3948 34.9046 17.2163 34.0535 20.8237 36.4405C21.6438 36.9812 22.2654 37.0292 23.1528 36.6357C27.6347 34.6455 32.1391 32.7065 36.6531 30.7963C37.5149 30.4315 37.9506 30.006 38.1076 28.9853C38.9758 23.3219 44.1658 20.3943 49.5704 22.378C50.0798 22.5668 50.9223 22.602 51.294 22.3109C55.7183 18.7976 60.0849 15.2108 64.2369 11.8288C64.2369 9.73945 63.8941 7.83246 64.3042 6.10146C65.4126 1.41398 70.1733 -1.04655 74.777 0.42209C79.1436 1.81393 81.4887 6.84057 79.7972 11.1857C78.0832 15.5948 73.0598 17.5946 68.6612 15.6908C68.0749 15.438 67.0818 15.2428 66.6909 15.55C62.3339 18.9736 58.057 22.4996 53.8153 25.952C54.0459 27.2575 54.3983 28.4446 54.44 29.6412C54.5713 33.2728 52.851 35.8677 49.6152 37.4132C48.7759 37.8131 48.4171 38.2227 48.3594 39.1666C47.5617 51.9235 46.7159 64.6773 45.899 77.4311C45.7164 80.3012 45.5498 83.1745 45.5049 86.0477C45.4953 86.6493 45.899 87.4908 46.3859 87.8235C49.3141 89.8233 50.7013 92.559 50.2464 96.0306C49.8139 99.3167 47.866 101.614 44.72 102.663C41.433 103.761 38.5209 102.923 36.0829 100.456C35.8618 100.232 35.6247 100.024 35.3076 99.7262C29.0123 102.184 22.7235 104.634 16.4955 107.066C16.3994 112.941 12.7792 115.904 8.40619 116.201C4.84049 116.444 0.989654 113.545 0.249602 110.202C-0.727523 105.774 1.08576 101.38 6.82678 99.691ZM38.963 34.5367C34.2183 36.5909 29.2942 38.725 24.3574 40.8624C25.1615 47.3097 22.2045 50.7909 16.0214 51.7348C15.4767 57.0014 14.9321 62.1272 14.4195 67.2594C13.8172 73.294 13.2566 79.3349 12.6511 85.3694C12.1994 89.8681 11.6772 94.3604 11.2543 98.8623C11.203 99.4031 11.4177 100.168 11.7957 100.513C12.7664 101.393 13.9037 102.097 15.0667 102.942C21.2274 100.539 27.4745 98.1008 33.7153 95.6627C33.7762 95.3139 33.8339 95.0579 33.8659 94.7988C33.8979 94.5364 33.8947 94.2644 33.9332 94.0021C34.4394 90.7352 36.1437 88.3099 39.293 87.2348C40.5969 86.7901 41.0934 86.1693 41.1703 84.9119C41.5932 78.1094 42.0481 71.3102 42.4838 64.5077C42.8779 58.3452 43.2719 52.1827 43.6532 46.017C43.8198 43.3261 43.9575 40.632 44.0889 38.3091C42.2692 36.9684 40.741 35.8421 38.963 34.5367ZM49.91 29.6348C49.8908 27.6894 48.2761 26.0512 46.3603 26.0416C44.5086 26.032 42.7401 27.7726 42.7177 29.6252C42.6953 31.5578 44.4925 33.3176 46.4372 33.2696C48.4139 33.2216 49.9292 31.6346 49.91 29.6348ZM19.7729 43.0445C19.7473 41.0704 18.1486 39.4929 16.1847 39.5089C14.2433 39.5249 12.6062 41.1567 12.5966 43.0893C12.5838 45.0571 14.3362 46.7625 16.3065 46.7049C18.2543 46.6473 19.8017 45.0155 19.7729 43.0445ZM8.26843 104.426C6.21487 104.423 4.7668 105.886 4.7668 107.959C4.77001 109.946 6.32059 111.59 8.2364 111.635C10.2067 111.68 11.863 109.975 11.8309 107.93C11.8021 105.879 10.3252 104.43 8.26843 104.426ZM75.8246 8.10123C75.8406 6.09506 74.3253 4.56883 72.3102 4.55603C70.2694 4.54323 68.549 6.20065 68.5939 8.13963C68.6387 10.053 70.2726 11.5984 72.2557 11.6048C74.2804 11.608 75.8086 10.1042 75.8246 8.10123ZM42.3589 91.1896C40.2893 91.1064 38.7227 92.479 38.6074 94.4788C38.492 96.4882 39.9305 98.1392 41.8944 98.2544C43.996 98.376 45.6427 96.9137 45.7132 94.8692C45.7836 92.831 44.3612 91.2696 42.3589 91.1896Z" fill="url(#paint0_linear_68_155)"/>
</g>
<defs>
<linearGradient id="paint0_linear_68_155" x1="49.8241" y1="-0.00127988" x2="31.8069" y2="98.5635" gradientUnits="userSpaceOnUse">
<stop offset="0.0582761" stop-color="#17F892"/>
<stop offset="0.905304" stop-color="#34B1F2"/>
</linearGradient>
<clipPath id="clip0_68_155">
<rect width="80.3485" height="116.214" fill="white"/>
</clipPath>
</defs>
</svg>