<svg xmlns="http://www.w3.org/2000/svg" width="148" height="123" viewBox="0 0 148 123" fill="none">
<path d="M18.6144 73.5971C18.9601 74.2502 19.2113 74.7231 19.5128 75.2935C18.2065 76.1683 16.8175 76.9249 15.6353 77.9297C13.4719 79.768 11.1815 81.5501 9.39643 83.7253C6.7868 86.8994 7.62909 89.8341 11.3411 91.6074C14.5034 93.1176 17.9376 93.5107 21.3836 93.756C29.1829 94.3057 36.9261 93.6407 44.6515 92.6418C62.5672 90.3247 80.0278 86.0571 97.0716 80.1433C104.12 77.6963 111.009 74.7881 117.972 72.0898C117.978 71.877 117.984 71.6672 117.99 71.4544C113.226 68.7975 108.462 66.1436 103.946 63.6255C103.133 67.3139 102.462 70.8693 101.543 74.3596C100.991 76.4609 98.8153 77.3712 96.782 76.5939C79.4751 69.9944 62.65 62.3459 46.3568 53.5328C46.1026 53.3939 45.8662 53.2195 45.5677 53.0304C47.2759 48.547 49.9979 44.8084 53.6005 41.4984C51.5967 40.7595 49.7496 40.0768 47.9054 39.3971C47.9586 39.2523 48.0118 39.1075 48.065 38.9626C49.6698 39.4976 51.2953 39.9823 52.8764 40.5881C53.7453 40.9221 54.3778 40.8659 55.158 40.2778C69.3174 29.5969 88.7344 32.8715 98.5316 47.6102C99.1227 48.4998 99.6961 48.553 100.597 48.4347C104.735 47.8909 108.881 47.4092 113.137 46.892C113.282 47.6043 113.386 48.1067 113.492 48.6268C109.023 49.0701 104.676 49.5016 100.213 49.942C100.278 50.3144 100.266 50.5538 100.361 50.7429C102.066 54.18 102.962 57.8329 103.396 61.6306C103.461 62.1863 103.925 62.8867 104.41 63.1704C108.911 65.8037 113.448 68.3778 117.999 70.9165C118.386 71.1323 119.069 71.1648 119.462 70.9697C124.542 68.4547 129.555 65.7978 133.793 61.9646C135.126 60.7588 136.379 59.3638 137.318 57.8388C138.932 55.2233 138.211 52.9122 135.554 51.3488C134.753 50.8789 133.878 50.536 132.909 50.072C133.098 49.1618 133.299 48.1806 133.541 47.0161C137.815 47.625 142.071 48.1421 145.523 51.0148C147.574 52.7201 147.928 54.9987 146.717 57.567C145.378 60.4041 143.256 62.6769 140.729 64.3762C135.962 67.5858 131.006 70.5117 126.12 73.5409C125.5 73.9251 124.826 74.2266 123.987 74.667C125.432 75.6807 126.806 76.5229 128.041 77.5367C131.31 80.2143 134.602 82.8771 137.712 85.735C138.864 86.793 139.698 88.3003 140.377 89.7455C141.122 91.3296 140.478 92.7304 138.758 93.224C137.224 93.6643 135.566 93.9067 133.97 93.8712C127.725 93.7293 121.684 92.2871 115.723 90.5759C110.294 89.0155 104.948 87.1654 99.5424 85.5251C98.7178 85.2739 97.6805 85.2385 96.8707 85.5044C81.0001 90.7119 64.8311 94.6751 48.3162 97.1813C39.2549 98.5555 30.1434 99.4776 20.961 99.2589C15.7919 99.1348 10.6288 98.7949 5.70512 96.9685C-0.616502 94.6248 -1.73365 90.4873 2.59898 85.2916C5.60168 81.6713 9.45554 79.0882 13.3892 76.6353C15.0531 75.5949 16.782 74.6581 18.6144 73.5971ZM105.155 82.815C105.601 82.9983 105.988 83.1904 106.396 83.3174C110.143 84.4967 113.867 85.7675 117.653 86.8107C122.766 88.2205 127.891 89.6598 133.27 89.6243C134.688 89.6154 136.346 89.7218 137.008 88.1614C137.629 86.6925 136.485 85.5517 135.587 84.5292C132.271 80.7521 128.103 78.0243 123.954 75.2906C123.659 75.0955 123.085 75.0866 122.742 75.2314C116.914 77.7169 111.104 80.2409 105.155 82.815ZM72.6304 69.7728C58.7134 63.5103 45.0919 56.6685 32.2033 48.4584C27.6816 45.5769 23.1893 42.6185 19.566 38.5784C18.6144 37.5174 17.4765 36.2939 18.1504 34.7926C18.8331 33.2705 20.5561 33.2617 21.9303 33.4419C26.0147 33.968 30.0784 34.6448 34.1362 35.3659C35.8474 35.6703 37.5172 36.2289 39.2047 36.6692C39.2431 36.551 39.2815 36.4299 39.3229 36.3116C38.8412 36.158 38.3654 35.9718 37.8748 35.8595C34.1421 34.9965 30.4419 33.9178 26.6619 33.3621C23.2869 32.8656 19.7995 32.6292 16.4067 32.8745C12.8365 33.1316 11.8819 35.4014 13.9891 38.2829C15.5703 40.4433 17.4588 42.45 19.4921 44.1967C26.5378 50.2553 34.4997 54.9839 42.5354 59.5825C43.2743 60.0052 43.7353 60.348 43.626 61.3735C43.5166 62.3961 43.2122 62.9044 42.2251 63.2709C38.7703 64.5535 35.3568 65.9426 31.9314 67.3021C31.7246 67.3848 31.5502 67.5503 31.299 67.7188C31.5443 68.168 31.7452 68.5315 31.9551 68.9128C35.7971 67.3671 39.5475 65.8569 43.4073 64.3023C43.4664 64.8432 43.5019 65.0855 43.5166 65.3279C44.0634 74.3123 47.7961 81.6801 54.7827 87.3575C55.2792 87.7624 56.1481 88.0638 56.7421 87.9367C62.8982 86.6482 69.0662 85.401 75.1632 83.8671C81.2011 82.351 87.1592 80.5187 93.4779 78.7336C86.2607 75.6422 79.3983 72.8169 72.6304 69.7728ZM123.413 38.1263C118.862 38.079 115.07 41.8028 115.07 46.3127C115.07 50.9232 118.847 54.6854 123.452 54.6588C127.92 54.6322 131.588 50.9261 131.603 46.4251C131.62 41.788 128.05 38.1735 123.413 38.1263ZM25.4827 6.10143C25.4443 9.52971 28.1426 12.3669 31.5177 12.4408C35.1203 12.5176 37.9782 9.79865 38.0137 6.25807C38.0432 2.84161 35.3449 0.0753499 31.9019 0.00146462C28.3938 -0.0724206 25.5212 2.65838 25.4827 6.10143ZM72.1989 116.755C72.1812 113.539 69.6927 111.019 66.5304 111.019C63.3504 111.019 60.8501 113.519 60.8265 116.722C60.8028 119.935 63.2647 122.406 66.4979 122.415C69.7164 122.42 72.2166 119.941 72.1989 116.755ZM25.2345 66.3002C22.4889 66.3297 20.3226 68.5552 20.3374 71.3303C20.3521 74.0877 22.5805 76.2954 25.3172 76.2658C28.0746 76.2363 30.2321 74.0256 30.2173 71.2476C30.2025 68.502 27.9535 66.2706 25.2345 66.3002ZM107.002 106.337C108.861 106.328 110.516 104.676 110.507 102.838C110.498 100.876 108.867 99.3003 106.887 99.3446C104.939 99.386 103.47 100.917 103.5 102.873C103.526 104.788 105.101 106.346 107.002 106.337ZM114.059 19.5958C114.05 17.731 112.437 16.1262 110.551 16.1055C108.607 16.0848 106.987 17.7517 107.046 19.7141C107.105 21.6764 108.618 23.1128 110.599 23.0862C112.528 23.0625 114.065 21.508 114.059 19.5958ZM43.5787 41.2885C45.2456 41.2708 46.6701 39.8493 46.6967 38.1706C46.7262 36.4358 45.2692 34.9521 43.5403 34.9551C41.8793 34.9581 40.4578 36.3826 40.4401 38.0642C40.4223 39.8374 41.8528 41.3063 43.5787 41.2885Z" fill="url(#paint0_linear_82_67)"/>
<defs>
<linearGradient id="paint0_linear_82_67" x1="103.142" y1="20.6894" x2="72.4133" y2="121.052" gradientUnits="userSpaceOnUse">
<stop offset="0.180763" stop-color="#17F892"/>
<stop offset="0.905304" stop-color="#34B1F2"/>
</linearGradient>
</defs>
</svg>