<svg xmlns="http://www.w3.org/2000/svg" width="130" height="130" viewBox="0 0 130 130" fill="none">
  <path d="M28.7947 74.0116C31.7954 74.3423 34.7003 74.9513 37.5942 74.9104C41.0116 74.8627 41.983 72.9683 40.0601 70.142C33.9703 61.1952 27.8682 52.246 21.4826 43.5036C14.4392 33.8635 7.08282 24.4497 -8.94029e-05 14.5922C0.839598 14.9504 1.67345 15.3254 2.51897 15.667C15.2375 20.7914 27.9463 25.933 40.6858 31.0031C42.3797 31.6781 44.2013 32.0748 45.9964 32.4511C48.0609 32.8846 49.4764 32.1135 49.7573 30.0366C50.0673 27.7494 49.8684 25.3957 49.8914 23.0695C49.8953 23.069 50.2904 23.1778 50.6372 23.3761C69.3524 34.0158 88.0481 44.6897 106.787 55.2947C114.855 59.8604 120.859 66.1175 123.955 75.0067C131.463 96.5619 115.083 119.718 92.2646 119.888C83.3573 119.956 75.5666 117.114 69.0523 111.212C55.6775 99.0895 42.4838 86.7654 29.2168 74.5221C29.0323 74.3508 28.8932 74.1302 28.7947 74.0116ZM41.4971 79.1023C41.7742 79.4087 42.0122 79.7201 42.2956 79.9821C52.3366 89.2385 62.2805 98.6065 72.4605 107.706C79.6712 114.152 88.25 116.35 97.746 114.344C109.621 111.835 118.535 102.481 120.471 90.7065C122.441 78.7052 116.91 66.8918 106.295 60.786C89.6193 51.1985 72.8945 41.6927 56.1897 32.1566C55.7103 31.8837 55.1949 31.671 54.6407 31.4037C54.3896 32.0233 54.2339 32.456 54.0401 32.8698C52.4126 36.3564 49.3269 38.05 45.5432 37.3378C43.293 36.912 41.0275 36.3968 38.8857 35.6037C31.626 32.9094 24.4194 30.0693 17.1923 27.2874C16.5913 27.0577 15.9879 26.8403 15.184 26.545C15.3157 26.989 15.3212 27.0637 15.3555 27.115C22.2582 36.4592 29.2551 45.7318 36.0304 55.1676C39.3147 59.7437 42.3208 64.5377 45.1873 69.3892C46.9163 72.3156 46.0497 75.4755 43.4437 77.696C42.8556 78.1955 42.1849 78.6061 41.4971 79.1023ZM115.754 82.8169C117.482 96.3315 108.038 108.406 94.4465 110.056C81.4649 111.633 69.2959 102.225 67.6379 89.3255C65.8853 75.7109 75.2007 63.5019 88.6209 61.8137C101.94 60.1423 114.058 69.5208 115.754 82.8169ZM90.4869 66.637C80.548 67.0581 71.3966 75.8904 72.3966 87.702C73.2235 97.4585 81.6645 105.873 92.8742 105.263C102.842 104.723 111.806 96.1688 110.991 84.3418C110.322 74.6764 101.846 65.9208 90.4869 66.637Z" fill="url(#paint0_linear_384_9)"/>
  <defs>
    <linearGradient id="paint0_linear_384_9" x1="23.8566" y1="46.7735" x2="119.061" y2="68.7338" gradientUnits="userSpaceOnUse">
      <stop offset="0.180763" stop-color="#17F892"/>
      <stop offset="0.905304" stop-color="#34B1F2"/>
    </linearGradient>
  </defs>
</svg>