<svg xmlns="http://www.w3.org/2000/svg" width="117" height="117" viewBox="0 0 117 117" fill="none">
<path d="M99.2288 113.605C104.375 113.605 109.151 113.541 113.918 113.663C114.744 113.682 115.556 114.474 116.372 114.912C115.565 115.349 114.759 116.165 113.947 116.17C76.7698 116.233 39.5924 116.233 2.415 116.17C1.60838 116.17 0.806619 115.349 0 114.912C0.821197 114.479 1.63268 113.687 2.46359 113.668C7.61915 113.551 12.7796 113.609 18.2315 113.609C17.9108 112.783 17.7553 112.273 17.527 111.797C14.4657 105.397 17.0119 98.6578 23.4746 95.8443C24.3638 95.4605 25.2336 94.7413 25.7972 93.9493C28.9022 89.5809 33.6885 87.7879 38.8003 89.3817C40.1269 89.7947 40.8217 89.4886 41.9442 88.6868C44.296 87.0055 46.988 85.8102 49.9278 84.2067C49.9278 82.1998 49.9278 79.3427 49.9278 76.2911C45.676 76.5049 46.2105 72.2094 44.0774 69.8965C42.3572 72.5836 41.8422 75.397 42.1046 78.4097C42.1532 78.9734 42.4107 79.5419 42.3524 80.0861C42.2795 80.7421 41.9782 81.3738 41.7741 82.0152C41.0793 81.7528 40.1609 81.6848 39.7236 81.1891C35.9869 76.9811 34.0384 71.981 33.6691 66.4027C33.2706 60.3725 34.9227 54.9011 38.295 49.867C39.0773 48.7008 39.5389 47.073 39.5341 45.6639C39.466 33.9776 41.4437 22.7724 46.9443 12.3398C49.2329 7.99086 52.2359 4.22502 55.9726 1.0034C57.5907 -0.386318 58.8103 -0.293994 60.3944 1.04227C65.2147 5.10938 68.5918 10.1823 71.1137 15.8821C75.3169 25.3866 76.8475 35.3916 76.7941 45.7222C76.7892 47.1216 77.2897 48.7494 78.0866 49.8962C84.5638 59.1917 84.3112 71.9081 77.2605 80.4797C76.6677 81.2037 75.6279 81.5584 74.7921 82.0881C74.5248 81.1697 74.0486 80.2513 74.0292 79.3281C73.966 76.2522 73.9952 73.191 72.1244 70.3095C70.0107 72.1851 70.6181 76.4126 66.5267 76.2571C66.5267 79.2552 66.5267 82.1367 66.5267 85.2757C70.3654 84.9598 73.7474 86.2767 76.3956 89.3962C76.658 89.7072 77.5715 89.6586 78.1157 89.5177C84.316 87.8753 88.0138 89.2067 92.0032 94.5275C92.3676 95.0086 92.9119 95.4313 93.461 95.684C100.861 99.0708 103.111 105.111 99.6564 112.39C99.5252 112.638 99.4571 112.939 99.2288 113.605ZM73.9855 90.9706C70.8853 86.8792 66.5024 86.7529 62.8823 90.9803C61.8862 92.1465 60.7248 93.1767 59.685 94.304C58.6014 95.4848 57.6198 95.3341 56.6286 94.2019C55.1903 92.5595 53.7714 90.9026 52.2796 89.3136C51.7646 88.7645 51.1086 88.1426 50.4234 87.9919C47.678 87.3991 44.5633 89.0755 43.227 91.7481C43.7032 92.3555 44.3835 92.9191 44.6605 93.6334C45.4331 95.6403 46.1182 97.6908 46.6333 99.7802C46.7353 100.193 45.919 100.83 45.5254 101.364C45.0541 100.912 44.5147 100.514 44.1454 99.994C43.9365 99.7025 44.0142 99.2117 43.9413 98.8133C43.2513 94.9745 40.4816 92.1902 36.7449 91.5586C33.1637 90.956 29.772 92.7248 27.7069 95.9561C27.0898 96.9182 25.9625 97.7297 24.8886 98.1962C22.4639 99.2457 20.5834 100.757 19.563 103.216C17.2937 108.687 20.4959 113.6 26.3172 113.6C48.2611 113.6 70.205 113.541 92.149 113.658C95.5795 113.677 96.8672 112.443 98.0626 109.411C99.8848 104.775 97.2803 99.8726 92.4454 98.133C91.4395 97.7686 90.3997 96.9231 89.8312 96.0144C87.7223 92.6567 84.2383 90.8929 80.5891 91.5926C76.7698 92.3263 74.1701 95.1981 73.4558 99.2263C73.3198 99.994 72.5472 100.655 72.071 101.359C71.6531 100.538 70.7201 99.5616 70.9145 98.9299C71.6822 96.3643 72.8095 93.9007 73.9855 90.9706ZM58.1884 65.7516C61.6675 65.7516 65.1515 65.6933 68.6258 65.7808C70.103 65.8148 70.7736 65.2705 71.1769 63.8565C75.2051 49.5901 75.0107 35.4208 70.414 21.3098C69.9184 19.784 69.1117 19.3807 67.6005 19.3953C61.2885 19.4682 54.9765 19.4779 48.6644 19.3904C47.1046 19.371 46.3612 19.8812 45.885 21.3584C41.3222 35.4742 41.1182 49.6435 45.1658 63.91C45.5789 65.3629 46.3126 65.8148 47.7509 65.7808C51.2301 65.703 54.7092 65.7565 58.1884 65.7516ZM58.3633 2.89361C54.3496 5.28431 48.956 12.6411 48.2951 16.5624C54.923 16.5624 61.5315 16.5624 68.4898 16.5624C65.9776 11.1104 62.9017 6.57199 58.3633 2.89361ZM58.2418 91.8598C62.5956 88.0551 64.7579 83.6673 63.927 78.0015C63.7278 76.6458 63.2759 75.9996 61.7987 76.0676C59.4615 76.1696 57.1096 76.1696 54.7675 76.0676C53.3195 76.0044 52.7607 76.6021 52.5809 77.9724C51.8423 83.575 53.7131 88.0988 58.2418 91.8598ZM69.17 68.6088C61.7404 68.6088 54.4614 68.6088 47.1435 68.6088C48.1591 73.0938 48.436 73.3319 52.44 73.3319C56.235 73.3319 60.03 73.3319 63.825 73.3319C67.8921 73.3367 68.1788 73.0938 69.17 68.6088ZM76.5317 52.8263C75.4432 57.3258 74.3936 61.6213 73.3781 65.9217C73.2955 66.2812 73.3295 66.7332 73.4753 67.0684C74.7143 69.9062 75.9923 72.7293 77.1925 75.4116C81.2985 70.2074 81.1236 59.1675 76.5317 52.8263ZM39.8305 52.972C35.3601 58.39 35.0345 70.3046 38.9801 74.8868C40.1123 72.4184 41.3271 69.8236 42.4787 67.1948C42.7217 66.6457 42.9258 65.946 42.7994 65.392C41.8762 61.3103 40.8606 57.2432 39.8305 52.972ZM58.0766 26.5771C62.547 26.5382 66.1525 30.0271 66.2157 34.4587C66.2788 38.9923 62.6393 42.6901 58.1349 42.6706C53.7034 42.6512 50.1416 39.0797 50.1319 34.6385C50.1173 30.1583 53.6062 26.6209 58.0766 26.5771ZM58.1592 39.9252C61.1816 39.9252 63.5577 37.5296 63.5091 34.5413C63.4605 31.6015 60.9289 29.133 58.0329 29.2108C55.2534 29.2837 52.8141 31.7521 52.7704 34.5461C52.7267 37.4859 55.1708 39.9252 58.1592 39.9252ZM59.4566 49.0313C59.0922 48.3315 58.6257 47.6901 58.1981 47.0244C57.751 47.6658 57.0805 48.2587 56.9153 48.9632C56.7015 49.8768 56.7598 50.9215 56.9736 51.8447C57.0805 52.3015 57.7656 52.8214 58.2612 52.9137C58.5722 52.972 59.1991 52.3501 59.3643 51.9079C59.5781 51.3296 59.476 50.6348 59.4809 50.5668C59.476 49.6678 59.5878 49.2888 59.4566 49.0313ZM58.2175 55.6057C57.7656 56.3054 56.959 57.01 56.959 57.7097C56.959 58.4046 57.7705 59.1043 58.2272 59.7991C58.7569 59.1529 59.2865 58.5018 60.0786 57.5396C59.2768 56.7039 58.7472 56.1548 58.2175 55.6057Z" fill="black"/>
<path d="M99.2288 113.605C104.375 113.605 109.151 113.541 113.918 113.663C114.744 113.682 115.556 114.474 116.372 114.912C115.565 115.349 114.759 116.165 113.947 116.17C76.7698 116.233 39.5924 116.233 2.415 116.17C1.60838 116.17 0.806619 115.349 0 114.912C0.821197 114.479 1.63268 113.687 2.46359 113.668C7.61915 113.551 12.7796 113.609 18.2315 113.609C17.9108 112.783 17.7553 112.273 17.527 111.797C14.4657 105.397 17.0119 98.6578 23.4746 95.8443C24.3638 95.4605 25.2336 94.7413 25.7972 93.9493C28.9022 89.5809 33.6885 87.7879 38.8003 89.3817C40.1269 89.7947 40.8217 89.4886 41.9442 88.6868C44.296 87.0055 46.988 85.8102 49.9278 84.2067C49.9278 82.1998 49.9278 79.3427 49.9278 76.2911C45.676 76.5049 46.2105 72.2094 44.0774 69.8965C42.3572 72.5836 41.8422 75.397 42.1046 78.4097C42.1532 78.9734 42.4107 79.5419 42.3524 80.0861C42.2795 80.7421 41.9782 81.3738 41.7741 82.0152C41.0793 81.7528 40.1609 81.6848 39.7236 81.1891C35.9869 76.9811 34.0384 71.981 33.6691 66.4027C33.2706 60.3725 34.9227 54.9011 38.295 49.867C39.0773 48.7008 39.5389 47.073 39.5341 45.6639C39.466 33.9776 41.4437 22.7724 46.9443 12.3398C49.2329 7.99086 52.2359 4.22502 55.9726 1.0034C57.5907 -0.386318 58.8103 -0.293994 60.3944 1.04227C65.2147 5.10938 68.5918 10.1823 71.1137 15.8821C75.3169 25.3866 76.8475 35.3916 76.7941 45.7222C76.7892 47.1216 77.2897 48.7494 78.0866 49.8962C84.5638 59.1917 84.3112 71.9081 77.2605 80.4797C76.6677 81.2037 75.6279 81.5584 74.7921 82.0881C74.5248 81.1697 74.0486 80.2513 74.0292 79.3281C73.966 76.2522 73.9952 73.191 72.1244 70.3095C70.0107 72.1851 70.6181 76.4126 66.5267 76.2571C66.5267 79.2552 66.5267 82.1367 66.5267 85.2757C70.3654 84.9598 73.7474 86.2767 76.3956 89.3962C76.658 89.7072 77.5715 89.6586 78.1157 89.5177C84.316 87.8753 88.0138 89.2067 92.0032 94.5275C92.3676 95.0086 92.9119 95.4313 93.461 95.684C100.861 99.0708 103.111 105.111 99.6564 112.39C99.5252 112.638 99.4571 112.939 99.2288 113.605ZM73.9855 90.9706C70.8853 86.8792 66.5024 86.7529 62.8823 90.9803C61.8862 92.1465 60.7248 93.1767 59.685 94.304C58.6014 95.4848 57.6198 95.3341 56.6286 94.2019C55.1903 92.5595 53.7714 90.9026 52.2796 89.3136C51.7646 88.7645 51.1086 88.1426 50.4234 87.9919C47.678 87.3991 44.5633 89.0755 43.227 91.7481C43.7032 92.3555 44.3835 92.9191 44.6605 93.6334C45.4331 95.6403 46.1182 97.6908 46.6333 99.7802C46.7353 100.193 45.919 100.83 45.5254 101.364C45.0541 100.912 44.5147 100.514 44.1454 99.994C43.9365 99.7025 44.0142 99.2117 43.9413 98.8133C43.2513 94.9745 40.4816 92.1902 36.7449 91.5586C33.1637 90.956 29.772 92.7248 27.7069 95.9561C27.0898 96.9182 25.9625 97.7297 24.8886 98.1962C22.4639 99.2457 20.5834 100.757 19.563 103.216C17.2937 108.687 20.4959 113.6 26.3172 113.6C48.2611 113.6 70.205 113.541 92.149 113.658C95.5795 113.677 96.8672 112.443 98.0626 109.411C99.8848 104.775 97.2803 99.8726 92.4454 98.133C91.4395 97.7686 90.3997 96.9231 89.8312 96.0144C87.7223 92.6567 84.2383 90.8929 80.5891 91.5926C76.7698 92.3263 74.1701 95.1981 73.4558 99.2263C73.3198 99.994 72.5472 100.655 72.071 101.359C71.6531 100.538 70.7201 99.5616 70.9145 98.9299C71.6822 96.3643 72.8095 93.9007 73.9855 90.9706ZM58.1884 65.7516C61.6675 65.7516 65.1515 65.6933 68.6258 65.7808C70.103 65.8148 70.7736 65.2705 71.1769 63.8565C75.2051 49.5901 75.0107 35.4208 70.414 21.3098C69.9184 19.784 69.1117 19.3807 67.6005 19.3953C61.2885 19.4682 54.9765 19.4779 48.6644 19.3904C47.1046 19.371 46.3612 19.8812 45.885 21.3584C41.3222 35.4742 41.1182 49.6435 45.1658 63.91C45.5789 65.3629 46.3126 65.8148 47.7509 65.7808C51.2301 65.703 54.7092 65.7565 58.1884 65.7516ZM58.3633 2.89361C54.3496 5.28431 48.956 12.6411 48.2951 16.5624C54.923 16.5624 61.5315 16.5624 68.4898 16.5624C65.9776 11.1104 62.9017 6.57199 58.3633 2.89361ZM58.2418 91.8598C62.5956 88.0551 64.7579 83.6673 63.927 78.0015C63.7278 76.6458 63.2759 75.9996 61.7987 76.0676C59.4615 76.1696 57.1096 76.1696 54.7675 76.0676C53.3195 76.0044 52.7607 76.6021 52.5809 77.9724C51.8423 83.575 53.7131 88.0988 58.2418 91.8598ZM69.17 68.6088C61.7404 68.6088 54.4614 68.6088 47.1435 68.6088C48.1591 73.0938 48.436 73.3319 52.44 73.3319C56.235 73.3319 60.03 73.3319 63.825 73.3319C67.8921 73.3367 68.1788 73.0938 69.17 68.6088ZM76.5317 52.8263C75.4432 57.3258 74.3936 61.6213 73.3781 65.9217C73.2955 66.2812 73.3295 66.7332 73.4753 67.0684C74.7143 69.9062 75.9923 72.7293 77.1925 75.4116C81.2985 70.2074 81.1236 59.1675 76.5317 52.8263ZM39.8305 52.972C35.3601 58.39 35.0345 70.3046 38.9801 74.8868C40.1123 72.4184 41.3271 69.8236 42.4787 67.1948C42.7217 66.6457 42.9258 65.946 42.7994 65.392C41.8762 61.3103 40.8606 57.2432 39.8305 52.972ZM58.0766 26.5771C62.547 26.5382 66.1525 30.0271 66.2157 34.4587C66.2788 38.9923 62.6393 42.6901 58.1349 42.6706C53.7034 42.6512 50.1416 39.0797 50.1319 34.6385C50.1173 30.1583 53.6062 26.6209 58.0766 26.5771ZM58.1592 39.9252C61.1816 39.9252 63.5577 37.5296 63.5091 34.5413C63.4605 31.6015 60.9289 29.133 58.0329 29.2108C55.2534 29.2837 52.8141 31.7521 52.7704 34.5461C52.7267 37.4859 55.1708 39.9252 58.1592 39.9252ZM59.4566 49.0313C59.0922 48.3315 58.6257 47.6901 58.1981 47.0244C57.751 47.6658 57.0805 48.2587 56.9153 48.9632C56.7015 49.8768 56.7598 50.9215 56.9736 51.8447C57.0805 52.3015 57.7656 52.8214 58.2612 52.9137C58.5722 52.972 59.1991 52.3501 59.3643 51.9079C59.5781 51.3296 59.476 50.6348 59.4809 50.5668C59.476 49.6678 59.5878 49.2888 59.4566 49.0313ZM58.2175 55.6057C57.7656 56.3054 56.959 57.01 56.959 57.7097C56.959 58.4046 57.7705 59.1043 58.2272 59.7991C58.7569 59.1529 59.2865 58.5018 60.0786 57.5396C59.2768 56.7039 58.7472 56.1548 58.2175 55.6057Z" fill="url(#paint0_linear_82_69)"/>
<defs>
<linearGradient id="paint0_linear_82_69" x1="101.443" y1="11.1909" x2="47.2566" y2="113.907" gradientUnits="userSpaceOnUse">
<stop offset="0.180763" stop-color="#17F892"/>
<stop offset="0.905304" stop-color="#34B1F2"/>
</linearGradient>
</defs>
</svg>