<svg xmlns="http://www.w3.org/2000/svg" width="125" height="117" viewBox="0 0 125 117" fill="none">
<path d="M59.7013 54.6095C60.3066 54.6979 60.4612 54.7642 60.5893 54.7332C62.6659 54.2163 64.6011 54.2517 65.7543 56.4122C66.5716 57.9365 65.6747 60.1986 63.6998 61.7627C63.0149 62.3017 62.2241 62.7214 61.442 63.1191C59.5024 64.1088 57.3949 64.6655 55.7027 62.9512C54.0459 61.2767 53.6085 58.9527 54.5893 56.8054C55.3581 55.1265 56.4671 53.3989 57.8809 52.2546C61.7867 49.0867 66.3242 47.6066 71.4405 48.1942C79.5524 49.1265 83.4714 56.5138 79.7247 63.773C75.9648 71.0543 69.6158 75.0307 62.1976 77.6463C56.9796 79.4843 51.638 80.2 46.1417 79.1043C38.1049 77.5049 33.7882 71.5403 34.7691 63.3974C34.9061 62.2664 35.0077 60.9851 36.532 61.1264C38.0563 61.2678 37.9988 62.5712 37.853 63.689C36.7794 71.9511 42.4259 75.9894 49.0798 76.3738C51.4833 76.5152 53.962 76.4357 56.3213 75.9983C63.9251 74.5888 70.5613 71.2884 75.3463 65.0189C76.4641 63.5521 77.2417 61.6876 77.7012 59.8849C78.7792 55.639 76.9545 52.6081 72.6865 51.5698C68.0694 50.4475 63.8588 51.5654 59.7013 54.6095ZM85.7645 33.0617C85.1327 32.9822 84.3993 33.7598 83.71 34.1354C84.2048 34.7407 84.6113 35.4608 85.221 35.9115C85.6496 36.2296 86.3477 36.1678 86.9221 36.2915C93.4081 37.6876 98.9088 40.4402 101.356 47.1604C103.433 52.8687 102.682 58.449 100.327 63.8967C95.1488 75.8657 85.8263 83.8848 74.8514 90.1985C67.4862 94.4356 59.5422 97.3207 51.2978 99.4106C50.5687 99.5961 50.0651 100.674 49.4553 101.337C50.2992 101.642 51.2271 102.349 51.9693 102.185C54.9075 101.549 57.8323 100.776 60.6821 99.8126C75.5672 94.7847 88.5833 86.9644 98.0781 74.1249C102.474 68.178 105.58 61.6566 105.585 57.2737C105.373 41.072 97.2033 34.4712 85.7645 33.0617ZM86.3654 58.4446C86.414 59.1338 87.2358 59.77 87.6997 60.4328C88.2829 59.7966 89.2417 59.2354 89.3919 58.5064C90.6378 52.5109 87.1474 46.2369 81.4081 43.7937C76.5922 41.7436 71.6349 41.8408 66.6732 42.9233C57.5982 44.9071 49.8132 48.9498 44.8162 57.2207C40.5614 64.2546 43.5614 71.5226 51.417 73.1794C58.4641 74.6684 68.6438 70.2236 72.3507 64.0337C73.7336 61.7273 74.3919 59.2487 73.4067 56.664C73.1592 56.0145 72.0679 55.6876 71.361 55.2148C71.065 55.935 70.3934 56.7391 70.5392 57.3577C71.3345 60.8128 69.6556 63.2472 67.3227 65.3017C63.9737 68.2531 59.9752 69.879 55.5172 70.2192C52.177 70.471 48.7087 70.2457 46.9458 66.9895C45.121 63.6139 46.3096 60.1721 48.4789 57.2737C54.4656 49.2767 62.8824 46.0381 71.3698 45.3268C82.6231 45.583 85.6982 48.5344 86.3654 58.4446ZM67.8264 83.2088C73.8794 80.1912 79.389 76.4401 83.5377 70.9968C84.0193 70.365 83.8381 69.2295 83.9663 68.3238C83.087 68.5358 82.0266 68.5138 81.3727 69.013C80.2814 69.8481 79.5127 71.0852 78.5053 72.0484C69.0724 81.0306 57.6468 85.3252 44.8118 86.0012C37.7205 86.3723 30.9915 85.1926 25.7603 79.7184C24.9164 78.8348 23.9886 77.7921 22.8266 79.0071C21.6646 80.2265 22.8177 81.0792 23.666 81.9231C29.264 87.5034 36.289 89.116 41.18 89.2C51.0061 89.3237 60.1784 87.0218 67.8264 83.2088ZM18.6469 69.8348C19.0711 70.6168 19.7559 71.2619 20.3258 71.9644C20.7588 71.2442 21.4525 70.5638 21.5718 69.795C21.9208 67.555 21.8325 65.2398 22.2787 63.0263C23.8472 55.2502 28.2831 49.0646 33.6424 43.4755C38.8825 38.0058 45.1166 33.8659 51.7573 30.3092C52.7558 29.7746 53.9134 29.1604 53.2374 27.8217C52.4818 26.3239 51.2757 27.0441 50.2109 27.5964C40.2477 32.7348 31.694 39.5433 25.314 48.8481C21.3465 54.636 18.5983 60.9144 18.5144 68.1029C18.5497 68.6816 18.3951 69.3665 18.6469 69.8348ZM110.891 23.3504C110.869 22.6656 110.277 21.5831 109.698 21.402C105.85 20.2002 102.002 18.782 98.0384 18.1988C84.2004 16.1619 70.9678 18.8748 58.1239 23.9999C57.1608 24.3843 56.0474 24.7908 56.6394 26.1869C57.1873 27.4771 58.1814 27.159 59.2373 26.8188C63.5009 25.4403 67.7204 23.8762 72.0679 22.8291C84.2932 19.8865 96.492 19.1178 108.439 24.2208C108.642 24.3048 108.859 24.349 109.53 24.5478C109.879 24.2606 110.904 23.7878 110.891 23.3504ZM39.9826 104.129C41.0916 104.089 42.4127 104.023 42.2934 102.446C42.1741 100.869 40.8398 101.138 39.744 101.107C35.4893 100.983 31.1947 101.16 26.9886 100.63C16.7957 99.3487 8.02545 95.4695 2.57775 86.0675C2.25522 85.5107 1.06671 85.4577 0.28468 85.1705C0.213988 86.01 -0.201327 87.0218 0.121205 87.6624C2.22429 91.82 5.3745 95.0895 9.25372 97.63C17.0475 102.737 25.8045 104.218 34.9105 104.142C36.6027 104.147 38.2949 104.191 39.9826 104.129ZM73.8087 33.1324C66.364 34.1619 59.4273 36.698 52.9634 40.4711C46.8 44.0676 41.3655 48.4858 37.7647 54.826C37.1726 55.8687 36.6292 57.0263 38.0563 57.5432C38.6351 57.7553 39.8412 57.0175 40.3847 56.3901C42.152 54.3444 43.5482 51.9453 45.448 50.0455C51.5496 43.9218 59.0164 40.0823 67.2697 37.7407C69.9427 36.9807 72.7218 36.5787 75.4037 35.8452C75.9781 35.6862 76.7027 34.8202 76.7248 34.2591C76.7424 33.7466 75.8985 33.2075 75.629 32.8983C74.6835 33.0176 74.2461 33.0706 73.8087 33.1324ZM34.0887 4.59939C34.1726 3.33136 33.0813 2.75257 31.557 3.25625C26.9621 4.77171 25.6631 4.38732 22.6764 0.994106C22.1727 0.419733 21.13 0.318114 20.3347 0C20.1933 0.848303 19.7294 1.79823 19.9591 2.53166C21.2934 6.77317 20.887 8.3063 17.7235 11.0942C17.1049 11.6377 16.9591 12.7201 16.5968 13.5552C17.507 13.6612 18.5188 14.081 19.3052 13.8203C23.0917 12.5743 25.0976 13.131 27.6911 16.1531C28.2213 16.7761 29.2949 16.9351 30.1167 17.3063C30.236 16.4005 30.6778 15.3843 30.4171 14.6023C29.1579 10.8247 29.6439 8.75696 32.7986 6.29158C33.3729 5.84092 34.155 5.65977 34.8398 5.35492C34.5924 5.09866 34.3405 4.84682 34.0887 4.59939ZM26.5423 10.8556C25.3538 10.5508 24.2006 10.2548 23.0033 9.94989C23.3258 8.8144 23.6395 7.70984 23.9886 6.47715C25.071 6.75992 26.1623 7.0471 27.4392 7.37847C27.1167 8.62884 26.8472 9.66712 26.5423 10.8556ZM114.214 39.9277C113.869 39.4063 113.113 39.0352 112.482 38.8806C112.164 38.801 111.355 39.3622 111.346 39.6493C111.328 40.4004 111.527 41.2046 111.823 41.9115C113.052 44.8761 114.837 47.7082 115.521 50.7877C117.399 59.2354 115.87 67.1132 110.356 74.0145C109.65 74.9025 108.916 75.9408 110.127 76.8819C111.364 77.8407 112.141 76.7759 112.835 75.9143C117.024 70.6964 119.082 64.6831 119.361 58.9924C119.626 51.4417 117.859 45.4019 114.214 39.9277ZM9.92529 57.4328C9.4172 56.9556 8.83399 56.0322 8.41867 56.1029C7.73826 56.2178 6.81927 56.8628 6.60719 57.4858C4.09763 64.8908 4.83547 72.1014 8.25962 79.0513C10.1418 82.8731 12.8767 86.0321 16.398 88.4268C16.9945 88.8333 18.3376 88.9526 18.8192 88.5638C19.9282 87.6669 19.0932 86.7567 18.2669 86.0454C17.7102 85.5638 17.127 85.1175 16.5792 84.6315C11.5026 80.1293 8.54238 74.5182 8.36565 67.7229C8.27729 64.3959 8.89142 61.0513 9.18745 57.7156C9.43045 57.6228 9.67787 57.5256 9.92529 57.4328ZM7.86197 37.8467C7.25225 38.1648 6.98716 39.1412 6.56743 39.8172C7.2876 40.1442 8.06963 40.8379 8.71911 40.7318C11.7014 40.2458 13.6631 41.2929 14.9444 44.019C15.2316 44.6243 16.2169 44.8982 16.884 45.3268C17.2242 44.5403 17.9135 43.7274 17.8516 42.9763C17.5954 39.8968 18.1874 38.6508 20.6572 37.1398C21.3951 36.6891 21.8148 35.7215 22.3803 34.9925C21.5188 34.67 20.6263 34.0072 19.8045 34.0868C17.1094 34.3519 15.3111 33.4108 14.0961 30.9675C13.7692 30.3092 12.7486 29.9999 12.0461 29.5316C11.7368 30.3799 11.3789 31.2193 11.1403 32.0853C11.0519 32.4034 11.2464 32.7966 11.2684 32.9159C11.2596 35.5448 9.82367 36.8172 7.86197 37.8467ZM13.0313 37.8202C13.3406 37.2105 13.6189 36.6538 13.9724 35.9513C14.6396 36.265 15.2449 36.5522 15.9341 36.8791C15.6116 37.5551 15.3376 38.1206 14.9577 38.9159C14.211 38.4918 13.6631 38.1781 13.0313 37.8202ZM98.5995 91.5328C95.4537 91.4577 92.6879 94.1617 92.626 97.3737C92.5642 100.652 95.1091 103.33 98.3477 103.396C101.789 103.467 104.37 100.948 104.392 97.5107C104.418 94.1882 101.913 91.6123 98.5995 91.5328ZM95.7409 97.6477C95.626 95.9997 96.9338 94.5726 98.5421 94.6654C100.234 94.767 101.334 95.7699 101.361 97.4489C101.387 99.1234 100.336 100.109 98.6658 100.321C96.9427 100.21 95.8646 99.415 95.7409 97.6477ZM112.022 1.79381C109.212 1.83357 107.074 4.06037 107.113 6.9013C107.149 9.56992 109.367 11.779 112.035 11.8056C114.775 11.8365 117.077 9.52574 117.055 6.76875C117.028 3.93666 114.823 1.75404 112.022 1.79381ZM113.789 6.6097C113.688 7.35638 112.725 7.98819 112.137 8.6686C111.51 8.09423 110.423 7.55962 110.374 6.94107C110.317 6.21205 111.156 5.41235 111.956 4.04711C112.893 5.28864 113.869 6.02207 113.789 6.6097ZM107.246 113.12C107.246 114.154 107.246 115.188 107.246 116.218C108.253 116.129 109.261 116.041 110.268 115.948C110.259 115.983 110.255 116.014 110.246 116.05C111.262 116.05 112.278 116.05 113.299 116.05C113.237 115.082 113.18 114.119 113.118 113.151C113.144 113.147 113.166 113.147 113.193 113.142C113.193 112.113 113.193 111.088 113.193 110.059C112.168 110.12 111.143 110.182 109.773 110.266C109.217 110.218 108.249 110.129 107.286 110.045C107.286 111.066 107.286 112.082 107.286 113.103C107.268 113.112 107.259 113.116 107.246 113.12ZM48.4391 14.536C49.4598 14.536 50.476 14.536 51.4966 14.536C51.4215 13.511 51.3464 12.4815 51.2712 11.4565C51.4303 10.4978 51.8014 9.00439 51.3419 8.67302C50.6704 8.19143 49.3979 8.54931 48.3817 8.54931C48.3861 8.62442 48.3905 8.70395 48.3905 8.77906C47.4185 8.68627 46.4465 8.59349 45.4745 8.50071C45.4745 9.58318 45.4745 10.6656 45.4745 11.7481C45.448 11.7525 45.4259 11.7614 45.3994 11.7658C45.3994 12.7201 45.3994 13.6789 45.3994 14.6332C46.4156 14.5625 47.4318 14.4963 48.448 14.4256C48.448 14.4653 48.4436 14.5007 48.4391 14.536ZM69.1917 106.895C69.1917 107.929 69.1917 108.958 69.1917 109.992C69.2182 109.997 69.2447 109.997 69.2756 110.001C69.2314 110.982 69.1828 111.967 69.1386 112.948C70.1504 112.948 71.1666 112.948 72.1784 112.948C72.174 112.891 72.1651 112.833 72.1607 112.78C73.1504 112.846 74.1401 112.917 75.1254 112.983C75.1254 111.958 75.1254 110.938 75.1254 109.913C75.0856 109.908 75.0458 109.904 75.0105 109.895C75.0105 108.866 75.0105 107.836 75.0105 106.807C74.034 106.908 73.0576 107.01 72.1475 107.103C71.1578 107.032 70.1769 106.966 69.1917 106.895ZM124.446 34.913C122.206 32.05 119.993 29.1604 117.651 26.3858C117.421 26.1118 116.136 26.2886 115.8 26.6641C115.477 27.0308 115.477 28.1177 115.8 28.5507C117.7 31.1398 119.692 33.667 121.76 36.1192C122.122 36.5522 123.024 36.7377 123.638 36.6714C124.027 36.6317 124.349 35.9159 124.552 35.6773C124.49 35.1958 124.526 35.0102 124.446 34.913ZM33.9164 74.5712C33.8634 72.8039 32.4318 71.4077 30.669 71.3989C28.8177 71.39 27.3067 72.8834 27.3155 74.717C27.3243 76.577 28.8266 78.0307 30.6911 77.9821C32.5909 77.929 33.9782 76.4622 33.9164 74.5712ZM92.2991 58.8025C92.3035 60.6537 93.788 62.0808 95.6923 62.0631C97.4463 62.0454 98.8337 60.636 98.869 58.8334C98.9044 56.9512 97.4463 55.4402 95.6128 55.449C93.7218 55.4622 92.2947 56.907 92.2991 58.8025ZM98.8955 24.455C97.1282 24.4197 95.6702 25.7716 95.5553 27.5434C95.4316 29.4741 96.7483 30.9542 98.6569 31.0293C100.583 31.1045 102.068 29.7613 102.13 27.8924C102.192 26.0456 100.725 24.4903 98.8955 24.455Z" fill="url(#paint0_linear_82_56)"/>
<defs>
<linearGradient id="paint0_linear_82_56" x1="98.4365" y1="12.4797" x2="55.9337" y2="111.525" gradientUnits="userSpaceOnUse">
<stop offset="0.0582761" stop-color="#17F892"/>
<stop offset="0.905304" stop-color="#34B1F2"/>
</linearGradient>
</defs>
</svg>