<svg xmlns="http://www.w3.org/2000/svg" width="117" height="117" viewBox="0 0 117 117" fill="none">
<path d="M58.3717 4.42879e-05C90.8589 0.0392124 116.559 26.1587 116.503 59.0823C116.452 90.3608 89.9524 116.301 58.1311 116.217C25.6999 116.133 -0.0558634 90.0978 9.09973e-05 57.4428C0.05045 25.9069 26.4162 -0.0391238 58.3717 4.42879e-05ZM59.1047 5.02475C39.3193 3.31255 16.0926 17.8439 9.45639 36.9635C14.6601 38.9387 20.0262 38.9499 25.3978 38.1945C30.4449 37.4839 34.3673 40.8859 33.9141 45.8491C33.5168 50.2023 27.2331 54.0296 23.2771 52.2055C22.6057 51.8978 21.9118 50.8011 21.9286 50.0848C21.9454 49.3686 22.7008 48.3503 23.389 48.0481C24.4578 47.5781 25.8902 47.8634 26.903 47.3263C27.8822 46.8059 28.5256 45.6532 29.3146 44.7804C28.2571 44.1201 27.2387 42.9954 26.1364 42.9003C24.0325 42.7212 21.8615 43.3871 19.752 43.236C15.6226 42.9395 11.5211 42.3184 7.3581 41.8316C5.71863 45.7596 5.78018 45.9386 9.95998 46.8619C11.9575 47.3039 14.0558 47.371 15.9863 47.9921C16.8032 48.2551 17.8551 49.5477 17.7992 50.3031C17.7432 51.0752 16.5738 51.9873 15.6897 52.4013C15.0406 52.7035 14.0502 52.3622 13.2333 52.2055C10.6146 51.7131 8.00717 51.1759 5.03039 50.5828C4.87372 53.7331 4.59395 56.6035 4.67788 59.4628C4.70026 60.1902 5.74661 61.2813 6.52438 61.5107C7.92324 61.9192 9.57389 61.5107 10.928 61.9919C11.924 62.3444 12.6122 63.5587 13.4347 64.3924C12.5283 65.103 11.7113 66.2221 10.7042 66.4291C9.04792 66.7704 7.27416 66.5242 5.53958 66.5242C5.80256 71.0901 5.94804 71.3643 10.2957 71.23C15.3148 71.0733 20.3283 70.6537 25.3362 70.3124C27.0205 70.1948 28.7607 70.1557 28.9453 72.3211C29.1076 74.1956 27.7087 74.8503 26.0189 74.951C21.0949 75.2419 16.1709 75.5441 11.2469 75.8351C10.1894 75.8966 9.12626 75.9302 7.62108 75.9973C8.56112 78.1236 9.34448 79.791 10.0327 81.4976C10.609 82.9301 11.3309 83.6351 13.1214 83.54C17.1109 83.3218 21.1285 83.4896 25.1292 83.4728C29.2083 83.4504 32.4257 86.3992 32.5264 90.2937C32.6327 94.2776 29.7846 97.1537 25.5153 97.4111C24.7152 97.4614 23.9262 97.5789 23.126 97.6685C23.0197 97.993 22.919 98.3175 22.8127 98.6365C24.4522 99.3247 26.1084 100.634 27.7255 100.589C33.9532 100.416 40.1698 99.8227 46.3863 99.3415C48.3111 99.196 50.9522 97.7636 51.4278 100.819C51.8866 103.762 48.9658 103.583 47.0745 103.879C42.8388 104.54 38.5751 104.993 34.3169 105.536C34.261 105.782 34.205 106.028 34.1491 106.274C37.2993 107.237 40.5223 109.212 43.5774 108.977C53.2967 108.227 62.5571 105.25 71.4539 101.233C72.9311 100.567 73.8487 99.2744 72.808 97.9203C72.254 97.1984 70.5138 96.8459 69.5234 97.1089C67.2013 97.73 64.9911 98.8043 62.7586 99.7388C61.1583 100.405 59.502 100.354 59.1495 98.5469C58.976 97.6573 60.0951 96.029 61.0519 95.503C63.3237 94.2552 65.8249 93.4159 68.2645 92.4983C72.3715 90.9539 76.8535 93.2257 77.7655 97.26C78.5601 100.791 76.9206 104.025 73.1885 105.558C68.2701 107.578 63.2565 109.357 58.2374 111.26C75.8463 113.884 104.366 95.1505 106.985 79.3266C105.726 79.0301 104.411 78.8734 103.225 78.409C99.3919 76.9094 97.6797 71.9966 100.002 68.6337C100.601 67.7664 102.246 67.6265 103.409 67.1509C103.661 68.2756 103.941 69.4003 104.165 70.5306C104.389 71.672 104.557 72.8191 104.752 73.9662C105.95 73.5857 107.438 73.5353 108.289 72.7688C111.853 69.5794 111.204 65.075 111.624 60.8728C110.935 61.3988 110.432 62.0199 109.984 62.6802C109.094 63.9895 107.987 64.7617 106.465 63.7825C104.903 62.7753 105.306 61.4324 106.106 60.1287C107.321 58.1367 108.272 55.8929 109.839 54.2311C112.385 51.5285 111.008 49.0329 110.269 45.6421C109.072 47.4662 108.283 48.6916 107.466 49.9002C104.881 53.7275 100.768 54.8018 97.3496 52.5524C93.8916 50.2751 93.3656 46.2743 95.7549 42.24C98.0322 38.396 100.125 34.4344 102.218 30.4784C102.565 29.8237 102.867 28.6879 102.548 28.2123C100.998 25.9405 99.2241 23.8198 97.5734 21.7104C94.5854 26.8694 91.8325 31.715 88.9788 36.4935C88.0388 38.0714 86.9029 40.1305 84.6535 38.5358C82.5496 37.0475 84.2115 35.4807 85.0676 33.9588C87.4904 29.6615 89.9748 25.3922 92.1458 20.9718C93.8244 17.5418 93.3488 16.8367 89.46 15.3148C88.6487 17.2732 88.0388 19.3603 86.9421 21.1508C86.4105 22.0181 84.8606 22.9358 83.9709 22.7679C82.2083 22.4434 82.2866 20.8039 82.8014 19.3603C83.4561 17.5194 84.301 15.7288 84.8158 13.8488C85.006 13.1493 84.7374 11.7784 84.2618 11.5378C80.8206 9.80885 77.2787 8.29249 73.4347 6.5579C73.2724 8.00152 73.1717 8.71774 73.1101 9.43955C72.6065 15.3148 70.6593 20.7256 67.6154 25.7223C65.5283 29.1523 61.4604 30.1035 58.1255 28.1507C53.7163 25.5712 53.4981 17.8327 57.8458 15.1693C58.4836 14.7776 59.7986 14.8056 60.3917 15.2196C60.9736 15.6225 61.3317 16.8087 61.2422 17.5865C61.1247 18.5489 60.498 19.4778 59.9944 20.3619C59.1271 21.8782 59.004 23.5177 60.733 24.094C61.5779 24.3794 63.5811 23.4226 63.9392 22.5665C65.6402 18.465 67.2741 14.2796 68.326 9.97672C69.3388 5.8193 68.6338 5.30452 63.8161 5.2094C63.8161 6.59147 64.1462 8.08546 63.7154 9.31086C63.3349 10.402 62.1039 11.1909 61.2478 12.1142C60.526 11.107 59.4964 10.1837 59.1719 9.05906C58.825 7.80009 59.1047 6.35646 59.1047 5.02475ZM105.916 34.1378C103.7 37.9148 101.485 41.4455 99.5822 45.1385C99.1401 46.0002 99.336 47.8355 99.9794 48.4789C101.216 49.7099 102.57 48.8706 103.432 47.5333C104.54 45.8099 105.429 43.9243 106.688 42.3184C109.01 39.3416 107.835 36.8684 105.916 34.1378ZM14.5986 88.1954C14.4307 88.5087 14.2685 88.8165 14.1006 89.1298C15.7233 90.4336 17.1725 92.3416 19.019 92.8844C21.0389 93.4775 23.473 93.0243 25.6384 92.599C26.5057 92.4255 27.1492 91.1106 27.899 90.3105C27.1436 89.6054 26.4274 88.3353 25.6328 88.2905C21.9622 88.0723 18.2748 88.1954 14.5986 88.1954ZM43.6054 94.7365C50.622 92.6158 57.4988 90.0083 64.4092 87.5295C66.0151 86.9532 67.3636 85.8117 66.3956 83.9261C65.4332 82.046 63.8441 82.7734 62.2662 83.3553C56.1671 85.6159 50.0233 87.7589 43.9019 89.9523C42.2065 90.5567 40.5894 90.5511 40.0858 88.5143C39.5766 86.4384 41.1602 85.8677 42.8276 85.4368C45.256 84.8045 47.7404 84.2338 50.0177 83.2266C50.9018 82.835 51.2991 81.3298 51.9146 80.3338C50.8515 79.8526 49.6876 78.8118 48.7476 78.9853C45.8323 79.5225 42.9843 80.4513 40.1474 81.3577C37.0307 82.3593 35.257 84.9109 35.2793 88.0947C35.3017 92.4703 39.3696 96.0178 43.6054 94.7365ZM49.9002 27.8262C47.2144 27.9996 44.8699 29.6671 45.2784 31.3233C46.0226 34.3001 47.9586 33.2537 49.9114 32.6215C50.5381 32.42 51.9034 33.0187 52.172 33.6007C52.5133 34.3337 52.4238 35.7773 51.8978 36.2977C50.5997 37.5958 49.0162 38.6533 47.427 39.6046C45.3288 40.8635 43.7508 40.0746 43.5662 37.635C43.4319 35.8668 42.8164 34.3784 41.0035 34.9715C40.0075 35.2961 38.866 37.0698 38.8604 38.2001C38.8157 43.1297 44.1817 46.3974 48.7028 44.1649C51.0921 42.9842 53.3302 41.3392 55.3166 39.5486C57.51 37.5622 57.9577 34.8652 56.7882 32.0955C55.6244 29.3425 53.4254 27.9772 51.0753 27.8206C50.2751 27.8262 50.0849 27.815 49.9002 27.8262ZM94.6917 92.3864C95.2289 91.9947 95.4247 90.372 95.0554 89.7285C94.6973 89.1018 93.4272 88.8556 92.5263 88.7381C91.9612 88.6654 91.3401 89.2753 90.7134 89.3592C89.0236 89.5942 87.8429 88.201 88.2514 86.5503C88.8893 83.9708 94.1993 81.5032 96.611 82.4041C97.523 82.7454 98.7596 82.1971 99.8507 82.0572C99.6157 80.9101 99.7556 79.4273 99.0786 78.6719C97.0083 76.3554 93.0858 76.2044 90.4 78.1628C88.6766 79.4217 87.026 80.8038 85.4872 82.2754C83.3218 84.3457 82.835 86.9364 83.9093 89.6894C84.9893 92.4647 87.1155 93.9307 90.3161 94.4231C91.7989 93.774 93.4216 93.3152 94.6917 92.3864ZM45.3288 59.4852C46.2464 60.1454 47.9698 60.884 47.9194 61.4492C47.8187 62.5347 46.9291 64.0007 45.9666 64.4707C43.3871 65.7185 40.5111 66.3508 37.9204 67.5874C37.0419 68.007 36.667 69.4954 36.0683 70.497C37.1426 70.9726 38.3848 72.0693 39.2521 71.8231C42.6373 70.8607 45.9834 69.6577 49.1896 68.1973C52.4014 66.7313 53.7107 62.9376 52.5301 59.6363C51.3942 56.4524 47.7236 54.3877 44.3999 55.4341C43.3983 55.7474 42.3408 57.1743 42.1561 58.243C42.0498 58.8361 43.6949 59.7314 44.5454 60.4924C44.8028 60.151 45.0658 59.8209 45.3288 59.4852ZM85.1963 55.988C83.7862 56.7322 82.7119 57.9184 83.5848 59.6083C84.4801 61.3485 85.8062 60.94 87.3673 60.2294C88.229 59.8377 89.4936 60.3413 90.5791 60.442C90.4112 61.5947 90.6462 63.0886 90.0028 63.8328C88.3185 65.7912 86.265 67.4363 84.3402 69.1877C83.1372 70.2788 82.572 71.7 83.9485 72.724C84.6703 73.2612 86.5224 73.1716 87.2722 72.5953C89.695 70.7376 91.9724 68.6449 94.0595 66.4123C96.085 64.2469 96.3256 61.5443 95.0946 58.8697C93.9028 56.2678 91.631 55.1095 88.4025 54.7738C87.5967 55.0704 86.3266 55.3893 85.1963 55.988ZM80.8934 46.2016C81.5257 45.6644 81.3186 44.1425 81.4977 43.0682C80.4178 42.9115 79.3434 42.6821 78.2579 42.6205C77.0213 42.5478 75.7792 42.6261 74.537 42.6429C74.8279 41.3224 74.8167 39.8116 75.4882 38.7317C76.6073 36.93 78.202 35.4304 79.5337 33.7573C80.4793 32.5655 80.9493 31.217 79.5561 30.0588C78.174 28.9117 76.9542 29.5496 75.9414 30.7582C74.2068 32.8285 72.4387 34.8708 70.7656 36.9859C68.9695 39.2633 68.8912 41.8092 70.0886 44.3495C71.2692 46.8675 73.4738 47.9418 76.9934 48.2775C77.8886 47.8187 79.6176 47.2815 80.8934 46.2016ZM65.8193 76.333C70.3684 73.3003 74.9622 70.3291 79.3546 67.0894C80.138 66.513 80.6919 64.4148 80.2499 63.6482C79.3602 62.0982 77.7711 62.5683 76.4282 63.6146C74.5258 65.0918 72.6121 66.569 70.609 67.9063C68.2197 69.501 65.6514 70.8439 63.3405 72.5337C62.6355 73.0485 62.1766 74.3746 62.227 75.2979C62.2606 75.919 63.3908 76.4785 63.9728 77.0213C64.7953 76.7191 65.3772 76.6296 65.8193 76.333ZM36.0571 63.0215C36.9916 62.7417 37.5287 61.1302 38.2449 60.1287C37.0923 59.653 35.8445 58.6347 34.7925 58.8025C30.5848 59.4796 26.3994 60.4028 22.2867 61.5275C21.3747 61.7737 20.3171 63.1558 20.2164 64.107C20.1437 64.7729 21.5873 65.601 22.4042 66.4067C27.2499 65.2485 31.7095 64.3196 36.0571 63.0215ZM75.9918 76.389C74.1453 77.2003 72.4219 78.3642 70.8552 79.6511C70.6369 79.8302 71.3028 81.7774 72.0022 82.253C73.6137 83.3441 78.0789 80.3841 78.0173 77.7207C77.5529 77.3962 76.4618 76.182 75.9918 76.389Z" fill="url(#paint0_linear_82_62)"/>
<defs>
<linearGradient id="paint0_linear_82_62" x1="101.557" y1="11.1909" x2="47.4052" y2="113.957" gradientUnits="userSpaceOnUse">
<stop offset="0.180763" stop-color="#17F892"/>
<stop offset="0.905304" stop-color="#34B1F2"/>
</linearGradient>
</defs>
</svg>