<svg xmlns="http://www.w3.org/2000/svg" width="97" height="116" viewBox="0 0 97 116" fill="none">
  <path d="M11.1799 68.6892C10.9236 68.2453 10.7464 67.9003 10.5332 67.5819C4.86857 59.0417 2.53806 49.6137 3.45062 39.4307C5.08893 21.1682 18.4085 5.71392 36.1305 1.30873C53.5315 -3.01683 71.4259 3.57646 82.0605 18.1816C82.8533 19.272 83.9264 20.1574 84.8725 21.132C100.803 37.5707 100.175 64.1344 83.4473 79.7745C82.5492 80.6165 82.1731 81.4319 82.2066 82.6671C82.2953 85.9215 82.2042 89.1807 82.2689 92.4376C82.2785 92.9297 82.6138 93.5763 83.0042 93.8778C87.3323 97.2191 89.0209 102.799 87.1767 107.88C85.3372 112.948 80.3168 116.283 74.9013 115.814C73.2271 115.67 71.5601 115.091 69.9577 114.517C49.4549 107.192 28.9665 99.8318 8.47093 92.4883C2.93326 90.5052 -0.18766 85.9866 0.00874474 80.1846C0.200359 74.5274 4.66019 69.6373 10.3751 68.817C10.6026 68.7881 10.823 68.7471 11.1799 68.6892ZM75.3828 18.5073C75.0738 18.1358 74.9061 17.9162 74.7217 17.7112C63.9266 5.8273 46.14 2.08314 31.4886 8.60889C9.21583 18.529 1.75004 45.6042 15.7211 65.6784C16.2098 66.3804 16.49 67.3599 16.5187 68.2212C16.5523 69.2175 16.8277 69.6686 17.781 70.0088C35.4431 76.3005 53.0932 82.6357 70.7457 88.9588C72.7553 89.6777 74.7672 90.387 76.9181 91.1517C76.9181 88.293 76.8654 85.6416 76.9444 82.9928C76.9756 81.9457 76.6834 81.4705 75.6654 81.1062C60.444 75.6733 45.2394 70.1849 30.0276 64.7207C19.9726 61.1092 16.3199 48.6994 22.7989 40.1399C25.0648 37.1461 28.0923 35.3174 31.6324 34.2897C32.4659 34.0484 32.7317 33.6263 32.7222 32.7554C32.679 28.6517 32.6814 24.5505 32.7174 20.4469C32.7341 18.6351 33.9126 17.3927 35.4455 17.4217C37.0191 17.453 38.1017 18.6786 38.1113 20.5145C38.1305 23.8943 38.1161 27.2718 38.1209 30.6517C38.1209 31.0329 38.1568 31.414 38.1808 31.9013C50.6118 27.4262 62.9278 22.9921 75.3828 18.5073ZM82.5084 103.723C82.5204 100.577 80.76 98.2758 77.4211 97.0816C69.1768 94.1287 60.9326 91.1807 52.6884 88.2278C40.1353 83.731 27.5773 79.2438 15.0313 74.7252C13.199 74.0642 11.4026 73.8471 9.56074 74.6046C6.95717 75.6733 5.26617 78.2305 5.32126 81.0193C5.38114 83.9505 7.22783 86.3075 10.2865 87.4028C25.0121 92.6788 39.7329 97.967 54.4584 103.243C60.8656 105.54 67.2559 107.89 73.7013 110.078C78.1205 111.583 82.4917 108.336 82.5084 103.723ZM45.8837 49.7392C45.8621 43.9179 41.2203 39.3076 35.4096 39.3318C29.5006 39.3559 24.9234 43.9637 24.9426 49.8622C24.9642 55.6329 29.6875 60.2841 35.4742 60.2286C41.3137 60.1731 45.9076 55.5436 45.8837 49.7392ZM76.166 75.5237C76.5828 75.695 76.8941 75.7819 77.1624 75.9411C78.5109 76.7372 79.4642 76.3609 80.5324 75.2246C89.8616 65.3262 93.0736 53.756 89.8257 40.5091C88.2018 33.8868 84.6976 28.2754 79.7372 23.6193C79.445 23.3443 78.9157 23.0958 78.5588 23.1634C77.7923 23.3081 77.0642 23.6651 76.2786 23.9522C91.979 37.4573 91.5982 62.2575 76.166 75.5237ZM37.9652 88.0879C39.6179 85.9987 40.7963 85.6537 43.2274 86.5198C45.5508 87.3497 47.8717 88.1892 50.1926 89.0288C52.9423 90.0227 53.4333 90.691 53.5387 93.6631C56.9039 94.8718 60.3075 96.0925 63.7086 97.3108C64.6452 97.6461 65.5913 97.9597 66.5158 98.324C67.7182 98.7969 68.2164 99.8246 67.814 100.915C67.4499 101.907 66.4056 102.36 65.2344 101.948C60.9183 100.425 56.6141 98.8765 52.2094 97.306C50.7579 99.6847 48.71 99.6147 46.4011 98.7004C44.0705 97.7788 41.6897 96.9803 39.3353 96.119C37.4646 95.4339 36.8107 94.4617 36.6407 92.4472C36.6095 92.0854 36.1568 91.5908 35.788 91.4557C31.4216 89.8369 27.036 88.2737 22.6528 86.6959C22.5043 86.6428 22.3486 86.6018 22.2025 86.5415C20.9546 86.0349 20.4588 85.0988 20.854 84.0084C21.2516 82.9156 22.2241 82.4813 23.5079 82.9156C25.3163 83.5259 27.1055 84.199 28.9042 84.8431C31.9078 85.9167 34.9042 86.9902 37.9652 88.0879ZM49.6537 92.9322C46.8489 91.9286 44.1735 90.9732 41.4286 89.9889C41.1173 90.8695 40.849 91.6342 40.5568 92.4665C43.3568 93.4677 46.0298 94.4231 48.7579 95.3977C49.0621 94.5582 49.3328 93.8151 49.6537 92.9322ZM12.2098 76.1992C9.58229 76.2306 7.46016 78.356 7.48172 80.9349C7.50327 83.497 9.68289 85.6658 12.2505 85.6802C14.7918 85.6923 17.0098 83.4559 16.981 80.9108C16.9499 78.2957 14.7966 76.1703 12.2098 76.1992ZM70.7289 102.58C70.7337 103.581 71.6319 104.5 72.6211 104.517C73.6798 104.534 74.5804 103.595 74.5444 102.512C74.5109 101.451 73.675 100.657 72.6091 100.674C71.5577 100.691 70.7241 101.535 70.7289 102.58ZM80.0773 104.732C80.1588 103.612 79.366 102.681 78.2833 102.623C77.3181 102.572 76.3456 103.455 76.2762 104.449C76.2067 105.446 77.0498 106.399 78.0606 106.466C79.124 106.536 79.9983 105.786 80.0773 104.732ZM35.3018 56.3132C31.7066 56.2649 28.739 53.218 28.8252 49.662C28.9114 46.0119 31.9246 43.1652 35.6419 43.2231C39.146 43.2762 42.0011 46.2797 41.9676 49.8815C41.934 53.4978 38.964 56.3614 35.3018 56.3132ZM35.3712 52.446C36.9185 52.4605 38.1449 51.2615 38.1353 49.744C38.1257 48.2796 36.9353 47.1024 35.4479 47.0831C33.915 47.0638 32.6503 48.2941 32.6671 49.7874C32.6814 51.2518 33.8814 52.4315 35.3712 52.446Z" fill="url(#paint0_linear_82_65)"/>
  <defs>
    <linearGradient id="paint0_linear_82_65" x1="11.6636" y1="9.33086" x2="13.1315" y2="110.411" gradientUnits="userSpaceOnUse">
      <stop offset="0.0582761" stop-color="#17F892"/>
      <stop offset="0.905304" stop-color="#34B1F2"/>
    </linearGradient>
  </defs>
</svg>