<svg xmlns="http://www.w3.org/2000/svg" width="117" height="116" viewBox="0 0 117 116" fill="none">
<path d="M95.2891 67.6965C96.3722 69.6432 97.3402 71.4964 98.4473 73.2613C98.6505 73.5849 99.434 73.6597 99.9474 73.6544C103.563 73.6169 106.392 75.0289 108.077 78.2645C109.783 81.5376 109.432 84.7519 107.157 87.6533C106.515 88.4742 105.627 89.1561 104.731 89.707C104.039 90.1322 103.771 90.56 103.731 91.3649C103.539 95.4002 102.121 98.8551 98.6478 101.179C95.5164 103.275 91.9893 103.604 88.3686 103.134C82.6594 102.393 77.5117 100.072 72.5352 97.3068C71.1393 96.5313 69.7542 95.7398 68.2513 94.8921C66.9945 96.9912 65.7885 99.053 64.5397 101.088C62.2667 104.789 59.6327 108.206 56.3756 111.1C53.8058 113.383 50.9392 115.14 47.4709 115.694C43.3554 116.349 39.9005 115.028 37.0954 112.028C33.7848 108.485 32.3916 104.029 31.8033 99.4006C31.2551 95.0846 31.2231 90.6991 31.0653 86.343C31.0278 85.2947 30.7925 84.9284 29.7122 84.9899C28.2013 85.0755 26.6824 85.03 25.1689 84.9712C24.364 84.9391 23.9067 85.1664 23.5056 85.9338C21.5856 89.6161 17.775 91.4532 14.042 90.5975C9.96664 89.6642 7.36207 86.458 7.1214 82.1714C7.09733 81.7275 6.83794 81.1071 6.48764 80.8958C-1.64698 75.9461 -1.70581 67.4906 3.94189 60.6449C8.22847 55.4464 13.8254 51.9861 19.6068 48.7639C19.917 48.59 20.2325 48.4216 20.54 48.2424C20.655 48.1756 20.754 48.0846 20.9171 47.9643C19.5774 45.5469 18.2082 43.2151 16.9728 40.8164C14.3201 35.6634 12.2075 30.3313 12.3519 24.4001C12.5204 17.5357 16.6572 13.0459 23.4334 12.2276C26.9739 11.7998 30.346 12.5726 33.6725 13.6449C38.3709 15.1584 42.6575 17.5304 46.8639 20.0574C47.2436 20.2847 47.6313 20.4959 48.1795 20.8088C49.3347 18.8808 50.4846 17.0009 51.5676 15.0836C51.6799 14.8857 51.4606 14.4231 51.2868 14.153C48.8908 10.4226 49.0807 6.2109 51.8003 3.29346C54.7177 0.162089 58.8438 -0.415516 62.7774 1.71307C63.1438 1.91095 63.7722 2.03396 64.0877 1.85747C71.6073 -2.389 79.1429 0.865378 82.5283 9.37704C84.1622 13.4845 84.8762 17.7764 85.1062 22.1566C85.2345 24.6034 85.2613 27.0582 85.2185 29.5077C85.1998 30.5639 85.5848 30.7672 86.5395 30.7511C91.8503 30.6709 97.1476 30.8394 102.341 32.1229C105.52 32.9091 108.574 33.9868 111.208 36.0164C116.011 39.7147 117.375 45.1725 114.826 50.6758C112.719 55.2245 109.197 58.5698 105.21 61.4097C102.389 63.4206 99.3591 65.1427 96.4203 66.9932C96.0914 67.2018 95.7518 67.4103 95.2891 67.6965ZM81.5282 51.9166C81.3143 51.5957 81.1298 51.1893 80.833 50.8951C75.6425 45.6967 70.4521 40.4982 65.2082 35.3559C64.7937 34.9495 63.8925 34.6927 63.339 34.8345C56.2312 36.6716 49.1395 38.5782 42.0639 40.5303C41.5745 40.664 40.9835 41.2443 40.8498 41.7283C38.8576 48.9805 36.9162 56.2487 35.031 63.5302C34.8946 64.0544 35.1139 64.9208 35.4936 65.2925C40.799 70.4989 46.1526 75.66 51.5355 80.7889C51.8805 81.1178 52.6239 81.329 53.0758 81.2034C60.2798 79.2058 67.4705 77.1628 74.6424 75.0529C75.1933 74.8898 75.827 74.2186 75.9902 73.6597C77.3433 69.0442 78.6482 64.41 79.8569 59.7544C80.5174 57.2113 80.9613 54.6148 81.5282 51.9166ZM66.8421 94.2022C66.6362 93.9374 66.5747 93.8091 66.473 93.7342C61.6784 90.191 56.8891 86.6451 52.073 83.1367C51.7254 82.8827 51.1638 82.7704 50.7279 82.8212C45.2942 83.4496 39.8711 84.1609 34.4347 84.7465C33.3115 84.8669 33.0896 85.3188 33.2367 86.2654C33.7902 89.7792 34.1619 93.3331 34.9347 96.796C35.7797 100.585 37.1515 104.227 39.5636 107.361C42.128 110.693 45.0134 111.637 48.963 110.332C50.3028 109.891 51.6077 109.26 52.8191 108.535C57.0763 105.987 60.5071 102.5 63.585 98.6572C64.7429 97.2078 65.7778 95.6649 66.8421 94.2022ZM47.1339 22.5202C44.6791 21.4934 42.2243 20.3489 39.6893 19.4343C34.8892 17.6988 29.9876 16.3778 24.7999 16.926C20.2619 17.4047 17.9007 19.5894 17.0637 24.0632C16.8765 25.0633 16.8257 26.1009 16.8257 27.1197C16.8337 33.8664 18.957 40.0623 21.7514 46.0978C22.2568 47.1915 22.7328 47.13 23.6661 46.6968C28.2281 44.5842 32.7821 42.4343 37.4296 40.525C39.1304 39.8243 40.0984 38.9339 40.7883 37.193C42.7056 32.3609 44.8984 27.6358 47.1339 22.5202ZM94.1847 65.8487C98.2681 63.2949 102.151 60.5165 105.306 56.9118C107.253 54.687 108.94 52.2001 110.494 49.6784C111.47 48.0927 111.839 46.2021 111.5 44.2633C110.983 41.3165 108.999 39.5061 106.617 38.0755C101.458 34.9789 95.717 33.7996 89.8286 33.1765C88.3071 33.0161 86.7721 32.9706 85.4378 32.885C84.6649 38.8804 83.9135 44.611 83.2156 50.3496C83.1648 50.7614 83.4135 51.2855 83.6755 51.6412C84.574 52.8579 85.5822 53.9971 86.4753 55.2165C89.0291 58.6955 91.5427 62.1985 94.1847 65.8487ZM50.022 21.8731C50.3054 22.1378 50.4231 22.2715 50.5595 22.3732C55.1215 25.7078 59.6755 29.0531 64.2669 32.3449C64.668 32.6337 65.3365 32.7086 65.8553 32.6551C71.2115 32.1042 76.5597 31.4785 81.9186 30.949C82.8893 30.8527 83.2878 30.604 83.13 29.5932C82.5123 25.6409 82.0791 21.6538 81.2849 17.7389C80.5522 14.1396 79.0975 10.7702 76.8058 7.8421C74.4285 4.807 71.3961 3.8363 67.9411 4.93536C66.2564 5.47018 66.2618 5.47018 66.6602 7.22439C66.7485 7.61213 66.8207 8.01057 66.8474 8.40901C67.2673 14.8108 60.9537 19.3942 55.0012 16.9661C54.1615 16.6238 53.6695 16.6132 53.1427 17.4261C52.172 18.9129 51.1077 20.3355 50.022 21.8731ZM69.2701 92.8437C69.46 93.0068 69.575 93.1486 69.7221 93.2261C75.4206 96.1676 81.341 98.4941 87.7936 98.9781C89.8821 99.1332 92.0882 98.9086 94.1179 98.3844C97.4712 97.5154 99.6319 94.1166 99.2655 90.9023C99.2334 90.8729 99.2067 90.8221 99.1719 90.8141C95.4843 90.0279 92.944 87.8966 92.0856 84.1983C91.2245 80.4947 92.5455 77.4703 95.5753 75.1706C95.8159 74.9861 96.0432 74.4406 95.9416 74.2052C95.1554 72.3788 94.2864 70.5872 93.4387 68.7741C93.0937 68.8624 92.9199 68.8838 92.7648 68.9506C87.577 71.1889 82.3813 73.4137 77.2176 75.7054C76.7282 75.922 76.287 76.5103 76.0704 77.0291C74.9392 79.7406 73.9445 82.5083 72.7919 85.2118C71.6902 87.7763 70.4548 90.2873 69.2701 92.8437ZM8.88363 76.751C9.03873 76.6654 9.13499 76.6413 9.19115 76.5798C11.8599 73.7052 15.1116 72.7692 18.7805 74.1063C22.3504 75.4059 24.1822 78.1495 24.4308 81.9575C24.4522 82.2703 24.7705 82.7891 25.0058 82.8239C27.006 83.11 29.0223 83.3025 30.8407 83.5058C31.6162 77.1254 32.3729 71.0311 33.0709 64.9261C33.1163 64.525 32.8061 64.0116 32.528 63.6559C30.6428 61.2278 28.6746 58.8639 26.8268 56.4091C25.2251 54.2832 23.7463 52.0637 22.1605 49.8121C21.5455 50.1918 20.9786 50.4619 20.5053 50.847C17.7429 53.0905 14.8843 55.2379 12.2824 57.6606C9.4024 60.3454 6.97432 63.4313 5.59449 67.2125C4.21732 70.9883 5.42602 74.5636 8.88363 76.751ZM67.8261 92.5522C70.9201 87.2602 73.1957 82.142 74.9767 76.7697C67.8235 78.7057 60.7959 80.607 53.3191 82.6313C58.2475 86.0034 62.9539 89.2203 67.8261 92.5522ZM50.1182 81.8077C44.8529 76.5932 39.7347 71.5204 34.4908 66.3273C33.5709 72.0793 32.9238 77.727 33.2153 83.5405C39.0234 83.5512 44.5615 82.9656 50.1182 81.8077ZM33.1939 62.605C35.0283 55.6684 36.8467 48.7826 38.6838 41.8379C38.5447 41.8593 38.3201 41.8433 38.141 41.9289C33.5094 44.1002 28.8805 46.2823 24.2544 48.467C23.4575 48.8414 23.396 49.3629 23.904 50.0608C26.8375 54.088 29.755 58.1259 32.6858 62.1531C32.8302 62.3483 33.0575 62.4847 33.1939 62.605ZM82.9803 53.0424C81.0201 60.3694 79.1964 67.1857 77.3379 74.1277C82.5898 72.1007 87.5744 69.8251 92.6311 66.8167C89.3767 62.1718 86.256 57.7167 82.9803 53.0424ZM81.8464 49.066C81.8812 48.9938 81.9775 48.8788 81.9855 48.7585C82.408 43.7526 82.8145 38.744 83.2396 33.7381C83.3199 32.7888 82.7423 32.754 82.0604 32.7915C79.1269 32.9546 76.1907 33.0455 73.2653 33.2942C71.126 33.4734 69.0027 33.8557 66.8661 34.1472C71.9309 39.1906 76.8592 44.1002 81.8464 49.066ZM41.7109 38.5327C48.9149 36.602 55.6055 34.805 62.4512 32.9706C58.202 29.4863 53.8379 26.3282 48.7464 23.5551C46.3825 28.5878 44.1069 33.4332 41.7109 38.5327ZM70.2703 57.7167C70.2355 51.1385 64.8017 45.7501 58.2074 45.7582C51.4954 45.7662 46.0804 51.1331 46.0777 57.7836C46.075 64.4662 51.4633 69.8625 58.1405 69.8652C64.9007 69.8679 70.305 64.4555 70.2703 57.7167Z" fill="url(#paint0_linear_82_64)"/>
<defs>
<linearGradient id="paint0_linear_82_64" x1="86.106" y1="17.3817" x2="46.2452" y2="101.766" gradientUnits="userSpaceOnUse">
<stop offset="0.0582761" stop-color="#17F892"/>
<stop offset="0.905304" stop-color="#34B1F2"/>
</linearGradient>
</defs>
</svg>